<svg xmlns="http://www.w3.org/2000/svg" width="30" height="30" viewBox="0 0 30 30">
    <path fill="#979797" fill-rule="nonzero" d="M28.125 14.24h-25V3.61c0-.719.662-1.35 1.419-1.35h2.612c.738 0 1.331.606 1.338 1.344-1.219.309-2.244 1.444-2.244 2.641v1.69c0 .347.281.63.625.63h4.375a.63.63 0 0 0 .625-.63v-1.69c0-1.216-.956-2.332-2.131-2.635C9.744 2.173 8.588 1 7.156 1H4.544C3.1 1 1.875 2.198 1.875 3.61v10.63C.844 14.234.006 15.078 0 16.119c0 .542.225 1.053.625 1.412v3.304c0 2.566 1.131 4.766 2.963 6.197l-1.025 2.055a.629.629 0 0 0 .28.845.618.618 0 0 0 .838-.284l.963-1.935a8.496 8.496 0 0 0 4.106 1.021h12.5a8.496 8.496 0 0 0 4.106-1.021l.963 1.935a.63.63 0 0 0 .837.284.638.638 0 0 0 .281-.845l-1.025-2.061c1.832-1.425 2.963-3.632 2.963-6.198v-3.303c.394-.347.625-.858.625-1.394a1.88 1.88 0 0 0-1.875-1.891zM9.119 4.783c.743 0 1.506.737 1.506 1.463v1.059H7.5v-1.06c0-.7.844-1.462 1.619-1.462zm19.006 16.052c0 3.789-2.956 6.645-6.875 6.645H8.75c-3.919 0-6.875-2.856-6.875-6.645v-2.812h26.25v2.812zm0-4.073H1.894a.641.641 0 0 1-.638-.536.63.63 0 0 1 .619-.725h26.231c.313 0 .594.227.638.536a.63.63 0 0 1-.62.725z"/>
</svg>
