<svg xmlns="http://www.w3.org/2000/svg" width="30" height="30" viewBox="0 0 30 30">
    <g fill="#979797" fill-rule="nonzero">
        <path d="M24.352 4.43L6.716 3.022c-1.79-.14-3.474.424-4.744 1.597C.7 5.792 0 7.428 0 9.226c0 1.799.7 3.435 1.971 4.61.897.827 2 1.347 3.201 1.535v8.082c0 1.852 1.16 3.36 2.587 3.36 1.426 0 2.586-1.508 2.586-3.36v-8.28c0-.011-.006-.02-.006-.03l14.013-1.121a.517.517 0 0 0 .476-.516v-8.56a.518.518 0 0 0-.476-.515zM9.31 23.454c0 1.26-.71 2.325-1.551 2.325s-1.552-1.065-1.552-2.325v-8c.169-.002.339-.008.51-.021l2.593-.208v8.229zm14.483-10.424L6.634 14.4c-1.499.118-2.906-.35-3.961-1.325-1.057-.975-1.639-2.342-1.639-3.849 0-1.505.582-2.872 1.64-3.847.947-.875 2.178-1.345 3.504-1.345.151 0 .303.007.456.019l17.16 1.37v7.606zM26.897 6.64h2.069a.517.517 0 1 0 0-1.034h-2.07a.517.517 0 1 0 0 1.034zM29.483 8.71h-2.07a.517.517 0 1 0 0 1.034h2.07a.517.517 0 1 0 0-1.035zM28.448 11.813H26.38a.517.517 0 1 0 0 1.034h2.07a.517.517 0 1 0 0-1.034z"/>
        <path d="M7.241 16.468h1.034v2.586H7.241z"/>
    </g>
</svg>
