<svg xmlns="http://www.w3.org/2000/svg" width="30" height="30" viewBox="0 0 30 30">
    <g fill="#979797" fill-rule="nonzero">
        <path d="M25 18.54H1.25a.625.625 0 0 0-.442.182c-.083.083-.808.85-.808 2.316 0 1.468.725 2.236.808 2.318a.625.625 0 0 0 .442.183H25a.625.625 0 0 0 .442-.183c.083-.082.808-.85.808-2.318 0-1.466-.725-2.233-.808-2.316A.625.625 0 0 0 25 18.54zM1.563 22.29c-.132-.222-.313-.636-.313-1.252 0-.615.182-1.03.312-1.249h4.28a3.675 3.675 0 0 0-.217 1.25c0 .512.098.908.217 1.25H1.563zm5.632 0c-.133-.217-.32-.618-.32-1.252s.188-1.036.319-1.249h16.148a3.673 3.673 0 0 0-.217 1.25c0 .512.098.908.217 1.25H7.195zm17.496-.009c-.133-.217-.316-.616-.316-1.243 0-.628.184-1.027.315-1.242.132.222.31.633.31 1.242 0 .61-.177 1.021-.31 1.243zM27.5 9.79h-8.75c-.69 0-1.25-.562-1.25-1.25 0-.69.56-1.25 1.25-1.25h8.125a.625.625 0 1 0 0-1.25H18.75a2.502 2.502 0 0 0-2.5 2.5c0 1.378 1.121 2.5 2.5 2.5h8.75c.689 0 1.25.56 1.25 1.249 0 .69-.561 1.25-1.25 1.25h-1.25a2.502 2.502 0 0 0-2.5 2.5v.625a.625.625 0 1 0 1.25 0v-.625c0-.689.56-1.25 1.25-1.25h1.25c1.379 0 2.5-1.121 2.5-2.5s-1.121-2.5-2.5-2.5z"/>
    </g>
</svg>
