<svg xmlns="http://www.w3.org/2000/svg" width="19" height="30" viewBox="0 0 19 30">
    <g fill="#979797" fill-rule="nonzero">
        <path d="M17.83 1.737h-5.81L11.27.24a.434.434 0 0 0-.388-.24H7.41a.434.434 0 0 0-.389.24l-.748 1.497H.463a.434.434 0 0 0-.434.434V26.6c0 .24.194.434.434.434h3.04v1.302c0 .718.584 1.303 1.302 1.303.718 0 1.302-.585 1.302-1.303v-1.302h6.078v1.302a1.304 1.304 0 0 0 2.605 0v-1.302h3.04c.24 0 .434-.195.434-.434V2.17a.434.434 0 0 0-.434-.433zM7.678.868h2.937l.434.869H7.244l.434-.869zm-2.44 27.468a.435.435 0 0 1-.867 0v-1.302h.868v1.302zm8.684 0a.435.435 0 0 1-.868 0v-1.302h.868v1.302zm3.473-24.863H3.936a.434.434 0 1 0 0 .869h13.46v21.823H.896V4.342H2.2a.434.434 0 1 0 0-.869H.897v-.868H17.395v.868z"/>
        <path d="M9.146 20.956c-1.197 0-2.17.973-2.17 2.17s.973 2.171 2.17 2.171 2.171-.974 2.171-2.17c0-1.198-.974-2.171-2.17-2.171zm0 3.473a1.304 1.304 0 0 1-1.302-1.303c0-.566.363-1.048.868-1.227v1.227a.434.434 0 1 0 .869 0V21.9c.505.179.868.661.868 1.227 0 .719-.584 1.303-1.303 1.303z"/>
    </g>
</svg>
