<svg xmlns="http://www.w3.org/2000/svg" width="30" height="32" viewBox="0 0 30 32">
    <g fill="none" fill-rule="evenodd" transform="translate(0 1)">
        <circle cx="15" cy="27" r="3" stroke="#979797"/>
        <g fill="#979797" fill-rule="nonzero">
            <path d="M-678.648 288.938l-17.636-1.41c-1.79-.14-3.474.425-4.744 1.598-1.272 1.173-1.972 2.81-1.972 4.608 0 1.798.7 3.435 1.971 4.609.897.827 2 1.348 3.201 1.535v8.082c0 1.853 1.16 3.36 2.587 3.36 1.426 0 2.586-1.507 2.586-3.36v-8.28c0-.01-.006-.02-.006-.03l14.013-1.12a.517.517 0 0 0 .476-.516v-8.56a.518.518 0 0 0-.476-.516zm-15.042 19.022c0 1.261-.71 2.326-1.551 2.326s-1.552-1.065-1.552-2.326v-8c.169-.001.339-.007.51-.02l2.593-.208v8.228zm14.483-10.423l-17.159 1.37c-1.499.119-2.906-.35-3.961-1.325-1.057-.975-1.639-2.342-1.639-3.848 0-1.506.582-2.872 1.64-3.848.947-.875 2.178-1.344 3.504-1.344.151 0 .303.006.456.018l17.16 1.371v7.606zM-676.103 291.148h2.069a.517.517 0 1 0 0-1.035h-2.07a.517.517 0 1 0 0 1.035zM-673.517 293.217h-2.07a.517.517 0 1 0 0 1.034h2.07a.517.517 0 1 0 0-1.034zM-674.552 296.32h-2.069a.517.517 0 1 0 0 1.035h2.07a.517.517 0 1 0 0-1.035z"/>
            <path d="M-695.759 300.975h1.034v2.586h-1.034z"/>
        </g>
        <path stroke="#979797" d="M0 4.55a27 27 0 0 1 30 0M4.2 11.4a19 19 0 0 1 21.65 0m-17.4 6.75a11 11 0 0 1 13.1 0"/>
    </g>
</svg>
