<?xml version="1.0" standalone="no"?>
<!DOCTYPE svg PUBLIC "-//W3C//DTD SVG 1.1//EN" "http://www.w3.org/Graphics/SVG/1.1/DTD/svg11.dtd" >
<svg>
<metadata>
Created by FontForge 20090622 at Thu May 24 13:43:58 2018
 By deploy user
Copyright 1989, 1995, 2002, 2004 Adobe Systems Incorporated. All rights reserved. Copyright 1989, 1995, 2002, 2004 Linotype GmbH. All rights reserved.
</metadata>
<defs>
<font id="iCielAvenirLTStd-65Medium" horiz-adv-x="556" >
  <font-face 
    font-family="iCiel Avenir LT Std 65 Medium"
    font-weight="500"
    font-stretch="normal"
    units-per-em="1000"
    panose-1="2 11 6 3 2 2 3 2 2 4"
    ascent="756"
    descent="-244"
    x-height="474"
    cap-height="708"
    bbox="-371 -282 1036 1060"
    underline-thickness="50"
    underline-position="-50"
    unicode-range="U+000D-U+FB02"
  />
<missing-glyph horiz-adv-x="500" 
d="M0 0v700h500v-700h-500zM250 395l170 255h-340zM280 350l170 -255v510zM80 50h340l-170 255zM50 605v-510l170 255z" />
    <glyph glyph-name="_229" unicode="fi" 
d="M390 0v474h90v-474h-90zM390 690q19 19 46 19q28 0 47 -19t19 -47q0 -27 -19 -46q-20 -20 -47 -20q-26 0 -46 20t-20 46q0 27 20 47zM103 0v396h-102v78h102v106q0 98 37 141q38 47 125 47q40 0 67 -7l-10 -80q-22 9 -51 9q-46 0 -63 -29q-14 -23 -14 -78v-109h107v-78
h-108v-396h-90z" />
    <glyph glyph-name="_253" unicode="fl" 
d="M391 0v756h90v-756h-90zM103 0v396h-102v78h102v106q0 98 37 141q38 47 125 47q40 0 67 -7l-10 -80q-22 9 -51 9q-46 0 -63 -29q-14 -23 -14 -78v-109h107v-78h-108v-396h-90z" />
    <glyph glyph-name=".notdef" horiz-adv-x="500" 
d="M0 0v700h500v-700h-500zM250 395l170 255h-340zM280 350l170 -255v510zM80 50h340l-170 255zM50 605v-510l170 255z" />
    <glyph glyph-name=".null" horiz-adv-x="0" 
 />
    <glyph glyph-name="nonmarkingreturn" unicode="&#xd;" horiz-adv-x="250" 
 />
    <glyph glyph-name="null" horiz-adv-x="0" 
 />
    <glyph glyph-name="null" horiz-adv-x="0" 
 />
    <glyph glyph-name="space" unicode=" " horiz-adv-x="278" 
 />
    <glyph glyph-name="exclam" unicode="!" horiz-adv-x="278" 
d="M185 708v-504h-96v504h96zM93 107q19 19 46 19q28 0 47 -19t19 -47q0 -27 -19 -46q-20 -20 -47 -20q-26 0 -46 20t-20 46q0 27 20 47z" />
    <glyph glyph-name="quotedbl" unicode="&#x22;" horiz-adv-x="519" 
d="M146 462v246h78v-246h-78zM295 462v246h78v-246h-78z" />
    <glyph glyph-name="numbersign" unicode="#" 
d="M92 0l28 204h-95v78h106l20 144h-95v78h106l28 204h79l-28 -204h116l28 204h79l-28 -204h95v-78h-106l-20 -144h95v-78h-106l-28 -204h-79l28 204h-116l-28 -204h-79zM346 426h-116l-20 -144h116z" />
    <glyph glyph-name="dollar" unicode="$" 
d="M300 792v-72q124 0 198 -77l-72 -70q-46 61 -126 63v-236l-2 -1q108 -30 153 -63q65 -50 65 -142q0 -88 -64 -146q-61 -55 -152 -60v-72h-54v72q-146 0 -220 96l77 69q47 -78 143 -81v246q-204 52 -204 205q0 82 62 138q58 52 142 59v72h54zM246 414v222
q-108 -16 -108 -113q0 -77 108 -109zM300 304v-232q54 6 85 37q35 32 35 81q0 76 -120 114z" />
    <glyph glyph-name="percent" unicode="%" horiz-adv-x="852" 
d="M89 674q52 52 125 52q74 0 125 -52q52 -51 52 -125q0 -73 -52 -125q-51 -52 -125 -52q-73 0 -125 52t-52 125q0 74 52 125zM144 479q29 -29 70 -29t70 29t29 70t-29 70t-70 29t-70 -29t-29 -70t29 -70zM513 284q52 52 125 52q74 0 125 -52q52 -51 52 -125q0 -73 -52 -125
q-51 -52 -125 -52q-73 0 -125 52t-52 125q0 74 52 125zM568 89q29 -29 70 -29t70 29t29 70t-29 70t-70 29t-70 -29t-29 -70t29 -70zM680 709l-445 -740l-60 31l445 740z" />
    <glyph glyph-name="ampersand" unicode="&#x26;" horiz-adv-x="722" 
d="M551 165l161 -165h-129l-87 94q-93 -112 -217 -112q-113 0 -176 64q-56 56 -56 141q0 126 161 203q-83 89 -83 164q0 78 57 124q52 42 132 42t129 -40q54 -44 54 -120q0 -106 -147 -182l140 -146l89 145h109zM377 616q-26 20 -62 20q-41 0 -66 -22q-28 -22 -28 -61
q0 -48 70 -118q110 62 110 125q0 35 -24 56zM439 156l-171 178q-119 -69 -119 -144q0 -50 41 -88q40 -36 92 -36q80 0 157 90z" />
    <glyph glyph-name="quotesingle" unicode="'" horiz-adv-x="278" 
d="M178 708v-246h-78v246h78z" />
    <glyph glyph-name="parenleft" unicode="(" horiz-adv-x="278" 
d="M194 732l60 -38q-128 -203 -128 -406q0 -228 128 -404l-60 -40q-146 200 -146 444q0 241 146 444z" />
    <glyph glyph-name="parenright" unicode=")" horiz-adv-x="278" 
d="M84 -156l-60 38q128 203 128 406q0 228 -128 404l60 40q146 -200 146 -444q0 -241 -146 -444z" />
    <glyph glyph-name="asterisk" unicode="*" horiz-adv-x="464" 
d="M269 708v-147l139 47l21 -67l-139 -45l88 -119l-55 -41l-91 122l-89 -120l-55 41l89 117l-142 48l21 65l141 -48v147h72z" />
    <glyph glyph-name="plus" unicode="+" horiz-adv-x="666" 
d="M66 264v78h228v228h78v-228h228v-78h-228v-228h-78v228h-228z" />
    <glyph glyph-name="comma" unicode="," horiz-adv-x="278" 
d="M214 114l-84 -246h-82l69 246h97z" />
    <glyph glyph-name="hyphen" unicode="-" horiz-adv-x="316" 
d="M281 284v-84h-246v84h246z" />
    <glyph glyph-name="period" unicode="." horiz-adv-x="278" 
d="M93 14q-20 20 -20 46q0 27 20 47q19 19 46 19q28 0 47 -19t19 -47q0 -27 -19 -46q-20 -20 -47 -20q-26 0 -46 20z" />
    <glyph glyph-name="slash" unicode="/" horiz-adv-x="389" 
d="M389 726l-319 -770l-70 26l320 770z" />
    <glyph glyph-name="zero" unicode="0" 
d="M81 595q62 125 197 125t197 -125q47 -97 47 -241q0 -142 -47 -239q-61 -127 -197 -127t-197 127q-47 97 -47 239q0 144 47 241zM278 72q148 0 148 282t-148 282t-148 -282t148 -282z" />
    <glyph glyph-name="one" unicode="1" 
d="M270 0v598l-130 -120l-56 67l197 163h85v-708h-96z" />
    <glyph glyph-name="two" unicode="2" 
d="M46 0v102l284 282q78 76 78 145q0 51 -36 83q-34 30 -86 30q-110 0 -129 -109l-104 9q13 91 78 139q61 45 156 45q96 0 157 -49q66 -53 66 -147q0 -102 -123 -221l-233 -225h356v-84h-464z" />
    <glyph glyph-name="three" unicode="3" 
d="M46 142l101 31q35 -101 130 -101q57 0 96 36q41 36 41 92q0 132 -199 132v84q104 0 145 29q36 25 36 82q0 55 -34 86q-32 29 -85 29q-84 0 -118 -82l-98 33q55 133 214 133q93 0 152 -47q65 -53 65 -146q0 -57 -33 -100q-34 -43 -88 -60v-2q65 -11 103 -62
q36 -49 36 -116q0 -97 -71 -153q-64 -52 -165 -52q-182 0 -228 154z" />
    <glyph glyph-name="four" unicode="4" 
d="M336 0v156h-302v98l282 454h116v-468h100v-84h-100v-156h-96zM336 240v354h-2l-216 -354h218z" />
    <glyph glyph-name="five" unicode="5" 
d="M471 708v-90h-287l-3 -177q33 15 95 15q98 0 160 -65q60 -65 60 -169t-73 -170q-70 -64 -176 -64q-75 0 -130 37q-59 38 -83 106l97 33q35 -92 131 -92q59 0 98 39q40 40 40 106q0 75 -48 116q-45 39 -123 39q-73 0 -146 -37l8 373h380z" />
    <glyph glyph-name="six" unicode="6" 
d="M398 708l-178 -274h4q31 16 78 16q86 0 148 -54q71 -62 71 -170q0 -112 -72 -177q-64 -61 -171 -61q-100 0 -171 62q-72 65 -72 166q0 96 71 209l179 283h113zM172 113q41 -41 106 -41q66 0 107 41q40 40 40 106t-40 106q-41 41 -107 41q-65 0 -106 -41t-41 -106t41 -106
z" />
    <glyph glyph-name="seven" unicode="7" 
d="M97 0l287 624h-342v84h445v-82l-282 -626h-108z" />
    <glyph glyph-name="eight" unicode="8" 
d="M114 45q-67 60 -67 158q0 64 39 112q36 45 96 61v3q-45 12 -75 51q-36 46 -36 114q0 78 62 128q58 48 145 48q86 0 145 -48q62 -50 62 -128q0 -68 -36 -114q-30 -39 -75 -51v-3q60 -16 96 -61q39 -48 39 -112q0 -98 -67 -158q-64 -57 -164 -57t-164 57zM196 453
q32 -35 82 -35q53 0 83 34q28 31 28 78q0 49 -31 80q-32 32 -80 32q-47 0 -78 -31q-33 -31 -33 -81q0 -42 29 -77zM376 109q37 36 37 94q0 63 -39 97q-39 33 -96 34q-60 -1 -97 -38q-38 -38 -38 -93q0 -60 40 -97q37 -34 95 -34q61 0 98 37z" />
    <glyph glyph-name="nine" unicode="9" 
d="M158 0l178 274h-4q-31 -16 -78 -16q-86 0 -148 54q-71 62 -71 170q0 114 72 178q66 60 171 60q100 0 171 -62q72 -64 72 -166q0 -96 -71 -209l-179 -283h-113zM385 595q-41 41 -107 41q-65 0 -106 -41t-41 -106t41 -106t106 -41q66 0 107 41q40 40 40 106t-40 106z" />
    <glyph glyph-name="colon" unicode=":" horiz-adv-x="278" 
d="M93 368q-20 20 -20 46q0 27 20 47q19 19 46 19q28 0 47 -19t19 -47q0 -27 -19 -46q-20 -20 -47 -20q-26 0 -46 20zM93 107q19 19 46 19q28 0 47 -19t19 -47q0 -27 -19 -46q-20 -20 -47 -20q-26 0 -46 20t-20 46q0 27 20 47z" />
    <glyph glyph-name="semicolon" unicode=";" horiz-adv-x="278" 
d="M214 114l-84 -246h-82l69 246h97zM93 460q19 19 46 19q28 0 47 -19t19 -47q0 -27 -19 -46q-20 -20 -47 -20q-26 0 -46 20t-20 46q0 27 20 47z" />
    <glyph glyph-name="less" unicode="&#x3c;" horiz-adv-x="666" 
d="M600 121v-78l-534 219v82l534 220v-79l-452 -182z" />
    <glyph glyph-name="equal" unicode="=" horiz-adv-x="666" 
d="M66 420h534v-78h-534v78zM66 263h534v-78h-534v78z" />
    <glyph glyph-name="greater" unicode="&#x3e;" horiz-adv-x="666" 
d="M66 485v78l534 -219v-82l-534 -220v79l452 182z" />
    <glyph glyph-name="question" unicode="?" horiz-adv-x="500" 
d="M306 198h-96v61q0 50 16 78q9 16 55 60q91 88 91 139q0 45 -31 76q-30 30 -75 30q-48 0 -79 -31t-37 -81l-102 10q13 87 73 137q58 49 147 49q86 0 142 -48q58 -51 58 -137q0 -78 -42 -120l-70 -71q-50 -53 -50 -108v-44zM211 107q19 19 46 19q28 0 47 -19t19 -47
q0 -27 -19 -46q-20 -20 -47 -20q-26 0 -46 20t-20 46q0 27 20 47z" />
    <glyph glyph-name="at" unicode="@" horiz-adv-x="800" 
d="M314 428q-37 -52 -37 -130q0 -80 71 -80q57 0 99 61q38 56 38 118q0 37 -16 62q-17 26 -47 26q-68 0 -108 -57zM615 544l-84 -277q-5 -20 -5 -25q0 -24 29 -24q44 0 83 58q40 61 40 138q0 114 -78 182q-73 64 -184 64q-127 0 -211 -89q-83 -89 -83 -219q0 -132 87 -218
q86 -86 212 -86q158 0 233 101h79q-42 -75 -130 -121q-85 -46 -184 -46q-158 0 -267 109q-108 108 -108 265q0 153 109 262q109 108 262 108q142 0 240 -86q101 -89 101 -218q0 -120 -82 -205q-74 -77 -153 -77q-62 0 -63 64h-4q-60 -64 -124 -64q-63 0 -100 46
q-37 43 -37 111q0 106 61 182q64 84 163 84q82 0 107 -76h2l16 57h73z" />
    <glyph glyph-name="A" unicode="A" horiz-adv-x="704" 
d="M1 0l312 708h87l303 -708h-112l-71 175h-337l-70 -175h-112zM217 259h268l-132 325h-2z" />
    <glyph glyph-name="B" unicode="B" horiz-adv-x="630" 
d="M91 0v708h246q99 0 154 -43q61 -46 61 -134q0 -115 -122 -156v-2q65 -5 108 -55q45 -49 45 -121q0 -92 -73 -146q-68 -51 -176 -51h-243zM187 624v-210h131q132 0 132 106q0 44 -27 73q-30 31 -85 31h-151zM187 330v-246h141q57 0 98 23q55 30 55 97q0 126 -152 126h-142
z" />
    <glyph glyph-name="C" unicode="C" horiz-adv-x="704" 
d="M664 616l-80 -61q-62 81 -171 81q-117 0 -192 -84q-72 -81 -72 -204q0 -118 70 -194q73 -82 194 -82q117 0 185 95l81 -61q-90 -124 -268 -124q-161 0 -266 116q-98 110 -98 250q0 166 103 272t266 106q164 0 248 -110z" />
    <glyph glyph-name="D" unicode="D" horiz-adv-x="741" 
d="M75 0v708h247q200 0 298 -128q74 -98 74 -226q0 -144 -99 -245q-108 -109 -289 -109h-231zM171 618v-528h121q128 0 211 66q89 72 89 198q0 96 -52 166q-74 98 -225 98h-144z" />
    <glyph glyph-name="E" unicode="E" horiz-adv-x="611" 
d="M91 0v708h457v-90h-361v-211h336v-90h-336v-227h379v-90h-475z" />
    <glyph glyph-name="F" unicode="F" horiz-adv-x="574" 
d="M91 0v708h445v-90h-349v-222h325v-90h-325v-306h-96z" />
    <glyph glyph-name="G" unicode="G" horiz-adv-x="778" 
d="M441 396h253v-349q-107 -65 -268 -65q-174 0 -279 111q-100 103 -100 261t104 265t265 107q175 0 264 -92l-68 -73q-78 75 -196 75q-119 0 -194 -83q-73 -79 -73 -199q0 -122 79 -201q79 -81 196 -81q110 0 174 37v197h-157v90z" />
    <glyph glyph-name="H" unicode="H" horiz-adv-x="741" 
d="M91 0v708h96v-294h367v294h96v-708h-96v324h-367v-324h-96z" />
    <glyph glyph-name="I" unicode="I" horiz-adv-x="278" 
d="M91 0v708h96v-708h-96z" />
    <glyph glyph-name="J" unicode="J" horiz-adv-x="482" 
d="M312 233v475h96v-506q0 -118 -74 -177q-55 -43 -133 -43q-163 0 -192 155l94 21q18 -86 98 -86q111 0 111 161z" />
    <glyph glyph-name="K" unicode="K" horiz-adv-x="648" 
d="M91 0v708h96v-306h8l313 306h134l-342 -327l365 -381h-140l-330 354h-8v-354h-96z" />
    <glyph glyph-name="L" unicode="L" horiz-adv-x="519" 
d="M91 0v708h96v-618h325v-90h-421z" />
    <glyph glyph-name="M" unicode="M" horiz-adv-x="906" 
d="M84 0v708h143l225 -536h4l223 536h143v-708h-96v582h-2l-239 -582h-64l-239 582h-2v-582h-96z" />
    <glyph glyph-name="N" unicode="N" horiz-adv-x="796" 
d="M91 0v708h126l390 -582h2v582h96v-708h-122l-394 582h-2v-582h-96z" />
    <glyph glyph-name="O" unicode="O" horiz-adv-x="832" 
d="M151 89q-104 107 -104 265t104 265t265 107t266 -107q103 -106 103 -265t-103 -265q-105 -107 -266 -107t-265 107zM610 155q73 79 73 199t-73 199q-75 83 -194 83t-194 -83q-73 -79 -73 -199t73 -199q75 -83 194 -83t194 83z" />
    <glyph glyph-name="P" unicode="P" horiz-adv-x="593" 
d="M91 0v708h249q123 0 181 -66q46 -49 46 -132t-46 -132q-58 -66 -181 -66h-153v-312h-96zM187 624v-228h126q152 0 152 114t-152 114h-126z" />
    <glyph glyph-name="Q" unicode="Q" horiz-adv-x="832" 
d="M822 84v-84h-408q-152 0 -259 102q-108 104 -108 260t105 260q107 104 261 104q148 0 255 -101q106 -103 106 -253q0 -93 -42 -170q-43 -81 -120 -116v-2h210zM599 171q73 79 73 197q0 113 -74 190q-76 78 -188 78q-110 0 -186 -78q-75 -76 -75 -188q0 -119 73 -198
q73 -82 188 -82q116 0 189 81z" />
    <glyph glyph-name="R" unicode="R" horiz-adv-x="611" 
d="M91 0v708h249q123 0 181 -66q46 -49 46 -132q0 -70 -47 -123q-49 -55 -127 -64l201 -323h-120l-180 312h-107v-312h-96zM187 624v-228h126q152 0 152 114t-152 114h-126z" />
    <glyph glyph-name="S" unicode="S" 
d="M33 80l79 68q49 -76 150 -76q54 0 94 30q47 35 47 88t-55 83q-18 10 -119 44q-82 27 -120 65q-55 52 -55 146q0 71 56 130q68 68 184 68q138 0 204 -81l-78 -71q-41 62 -126 62q-72 0 -109 -37q-29 -32 -29 -71q0 -60 55 -91q26 -16 120 -44q82 -25 119 -58
q55 -48 55 -134q0 -99 -72 -161q-67 -58 -174 -58q-155 0 -226 98z" />
    <glyph glyph-name="T" unicode="T" horiz-adv-x="574" 
d="M239 0v618h-228v90h552v-90h-228v-618h-96z" />
    <glyph glyph-name="U" unicode="U" horiz-adv-x="704" 
d="M78 708h96v-434q0 -78 39 -134q48 -68 139 -68t139 68q39 56 39 134v434h96v-449q0 -122 -79 -200q-77 -77 -195 -77t-195 77q-79 78 -79 200v449z" />
    <glyph glyph-name="V" unicode="V" horiz-adv-x="630" 
d="M267 0l-273 708h111l208 -576h2l216 576h105l-279 -708h-90z" />
    <glyph glyph-name="W" unicode="W" horiz-adv-x="962" 
d="M208 0l-207 708h100l156 -566h2l167 566h110l167 -566h2l156 566h100l-206 -708h-101l-172 578h-2l-171 -578h-101z" />
    <glyph glyph-name="X" unicode="X" horiz-adv-x="648" 
d="M-2 0l257 372l-238 336h123l184 -272l182 272h120l-236 -335l260 -373h-126l-203 307l-204 -307h-119z" />
    <glyph glyph-name="Y" unicode="Y" horiz-adv-x="612" 
d="M258 0v302l-268 406h123l193 -311l199 311h117l-268 -406v-302h-96z" />
    <glyph glyph-name="Z" unicode="Z" horiz-adv-x="593" 
d="M32 0v90l403 528h-391v90h511v-90l-401 -528h407v-90h-529z" />
    <glyph glyph-name="bracketleft" unicode="[" horiz-adv-x="278" 
d="M72 -156v888h174v-66h-90v-756h90v-66h-174z" />
    <glyph glyph-name="backslash" unicode="\" horiz-adv-x="389" 
d="M319 -44l-319 770l69 26l320 -770z" />
    <glyph glyph-name="bracketright" unicode="]" horiz-adv-x="278" 
d="M32 -156v66h90v756h-90v66h174v-888h-174z" />
    <glyph glyph-name="asciicircum" unicode="^" horiz-adv-x="666" 
d="M80 276l213 432h80l213 -432h-83l-170 353l-170 -353h-83z" />
    <glyph glyph-name="underscore" unicode="_" horiz-adv-x="500" 
d="M0 -125v50h500v-50h-500z" />
    <glyph glyph-name="grave" unicode="`" horiz-adv-x="240" 
d="M82 708l104 -144h-83l-149 144h128z" />
    <glyph glyph-name="A001" unicode="a" horiz-adv-x="519" 
d="M124 360l-54 56q73 70 188 70q100 0 152 -48q46 -43 46 -110v-242q0 -55 4 -86h-80q-3 36 -3 72h-2q-55 -84 -166 -84q-69 0 -115 37q-49 39 -49 105q0 164 261 164h66v20q0 40 -28 68q-32 32 -85 32q-65 0 -135 -54zM372 228h-48q-189 0 -189 -91q0 -77 102 -77
q69 0 105 45q30 37 30 93v30z" />
    <glyph glyph-name="B002" unicode="b" horiz-adv-x="611" 
d="M68 0v756h90v-350h2q53 80 165 80q107 0 175 -71q66 -71 66 -178q0 -106 -65 -177q-67 -72 -176 -72t-165 80h-2v-68h-90zM428 119q42 45 42 118t-42 119q-43 46 -114 46t-114 -46q-42 -46 -42 -119t42 -118q44 -47 114 -47t114 47z" />
    <glyph glyph-name="C003" unicode="c" horiz-adv-x="482" 
d="M475 410l-68 -62q-50 53 -118 53q-71 0 -111 -51q-37 -46 -37 -117q0 -67 42 -114q44 -47 111 -47q70 0 115 53l64 -64q-66 -73 -180 -73q-110 0 -179 69t-69 178t69 180q69 70 179 70q113 0 182 -75z" />
    <glyph glyph-name="D004" unicode="d" horiz-adv-x="611" 
d="M543 756v-756h-90v68h-2q-56 -80 -165 -80q-108 0 -176 72q-65 71 -65 177q0 107 66 178q68 71 175 71q112 0 165 -80h2v350h90zM411 119q42 45 42 118t-42 119q-43 46 -114 46t-114 -46q-42 -46 -42 -119t42 -118q44 -47 114 -47t114 47z" />
    <glyph glyph-name="E005" unicode="e" 
d="M516 204h-380q0 -60 49 -100q47 -38 111 -38q71 0 130 71l68 -52q-75 -97 -210 -97q-110 0 -178 72q-66 69 -66 177q0 107 69 178q71 71 176 71q117 0 178 -79q53 -68 53 -171v-32zM136 276h284q-2 63 -35 99q-36 39 -102 39q-63 0 -107 -45q-40 -40 -40 -93z" />
    <glyph glyph-name="F006" unicode="f" horiz-adv-x="333" 
d="M103 0v396h-102v78h102v106q0 98 37 141q38 47 125 47q40 0 67 -7l-10 -80q-22 9 -51 9q-46 0 -63 -29q-14 -23 -14 -78v-109h107v-78h-108v-396h-90z" />
    <glyph glyph-name="G007" unicode="g" horiz-adv-x="611" 
d="M543 474v-470q0 -108 -71 -176q-74 -68 -188 -68q-141 0 -232 85l61 76q72 -77 169 -77q171 0 171 164v70h-3q-49 -84 -164 -84q-104 0 -173 70q-69 71 -68 173q0 106 65 177q68 72 176 72q109 0 165 -80h2v68h90zM183 356q-42 -46 -42 -119q0 -72 42 -115
q42 -44 114 -44t114 44q42 43 42 115q0 73 -42 119q-43 46 -114 46t-114 -46z" />
    <glyph glyph-name="H008" unicode="h" 
d="M68 0v756h90v-355h2q39 85 156 85q75 0 121 -43q51 -48 51 -138v-305h-90v280q0 122 -108 122q-59 0 -94 -38q-38 -41 -38 -120v-244h-90z" />
    <glyph glyph-name="I009" unicode="i" horiz-adv-x="240" 
d="M75 0v474h90v-474h-90zM74 691q19 19 46 19q28 0 47 -19t19 -47q0 -27 -19 -46q-20 -20 -47 -20q-26 0 -46 20t-20 46q0 27 20 47z" />
    <glyph glyph-name="J010" unicode="j" horiz-adv-x="240" 
d="M75 474h90v-542q0 -172 -145 -172q-34 0 -58 9l10 83q26 -8 37 -8q66 0 66 92v538zM74 691q19 19 46 19q28 0 47 -19t19 -47q0 -27 -19 -46q-20 -20 -47 -20q-26 0 -46 20t-20 46q0 27 20 47z" />
    <glyph glyph-name="K011" unicode="k" horiz-adv-x="519" 
d="M68 0v756h90v-488l204 205h125l-221 -215l240 -258h-128l-220 246v-246h-90z" />
    <glyph glyph-name="L012" unicode="l" horiz-adv-x="240" 
d="M75 0v756h90v-756h-90z" />
    <glyph glyph-name="M013" unicode="m" horiz-adv-x="852" 
d="M68 0v474h84v-74h2q9 27 48 54q47 32 104 32q102 0 148 -88q46 88 150 88q180 0 180 -210v-276h-90v264q0 138 -102 138q-121 0 -121 -143v-259h-90v248q0 74 -17 111q-22 43 -83 43q-51 0 -86 -38q-37 -40 -37 -118v-246h-90z" />
    <glyph glyph-name="N014" unicode="n" 
d="M68 0v474h90v-73h2q39 85 156 85q75 0 121 -43q51 -48 51 -138v-305h-90v280q0 122 -108 122q-59 0 -94 -38q-38 -41 -38 -120v-244h-90z" />
    <glyph glyph-name="O015" unicode="o" horiz-adv-x="594" 
d="M183 119q44 -47 114 -47t114 47q42 45 42 118t-42 119q-43 46 -114 46t-114 -46q-42 -46 -42 -119t42 -118zM118 413q73 73 179 73t179 -73q73 -72 73 -176t-73 -176q-73 -73 -179 -73t-179 73q-73 72 -73 176t73 176z" />
    <glyph glyph-name="P016" unicode="p" horiz-adv-x="611" 
d="M68 -282v756h90v-68h2q56 80 165 80t176 -72q65 -71 65 -177q0 -107 -66 -178q-68 -71 -175 -71q-112 0 -165 80h-2v-350h-90zM200 356q-42 -46 -42 -119t42 -118q44 -47 114 -47t114 47q42 45 42 118t-42 119q-43 46 -114 46t-114 -46z" />
    <glyph glyph-name="Q017" unicode="q" horiz-adv-x="611" 
d="M543 474v-702h-90v296h-2q-53 -80 -165 -80q-107 0 -175 71q-66 71 -66 178q0 106 65 177q68 72 176 72q109 0 165 -80h2v68h90zM183 356q-42 -46 -42 -119t42 -118q44 -47 114 -47t114 47q42 45 42 118t-42 119q-43 46 -114 46t-114 -46z" />
    <glyph glyph-name="R018" unicode="r" horiz-adv-x="370" 
d="M68 0v474h90v-73h2q16 36 58 61q39 24 84 24q22 0 40 -6l-4 -97q-22 7 -44 7q-136 0 -136 -152v-238h-90z" />
    <glyph glyph-name="S019" unicode="s" horiz-adv-x="444" 
d="M390 408l-70 -53q-38 47 -97 47q-32 0 -55 -14q-24 -14 -24 -39q0 -37 46 -55q15 -6 75 -19q67 -16 98 -43q40 -33 40 -95q0 -75 -61 -115q-52 -34 -131 -34q-121 0 -183 84l68 56q56 -56 115 -56q38 0 65 15q31 16 31 45q0 35 -42 53q-15 7 -72 20q-71 17 -101 41
q-44 32 -44 94q0 70 57 110q49 36 123 36q116 0 162 -78z" />
    <glyph glyph-name="T020" unicode="t" horiz-adv-x="370" 
d="M322 474v-78h-129v-215q0 -55 9 -74q14 -35 59 -35q41 0 64 14v-82q-28 -16 -81 -16q-92 0 -123 52q-18 32 -18 109v247h-104v78h104v133h90v-133h129z" />
    <glyph glyph-name="U021" unicode="u" 
d="M488 474v-474h-90v73h-2q-39 -85 -156 -85q-74 0 -120 43q-52 48 -52 138v305h90v-280q0 -122 108 -122q59 0 94 38q38 41 38 120v244h90z" />
    <glyph glyph-name="V022" unicode="v" horiz-adv-x="500" 
d="M204 0l-193 474h104l142 -363l136 363h96l-186 -474h-99z" />
    <glyph glyph-name="W023" unicode="w" horiz-adv-x="759" 
d="M167 0l-156 474h101l107 -354h2l113 354h95l120 -354h2l102 354h95l-153 -474h-91l-125 354h-2l-113 -354h-97z" />
    <glyph glyph-name="X024" unicode="x" horiz-adv-x="519" 
d="M6 0l192 253l-168 221h116l115 -168l113 168h109l-162 -221l192 -253h-116l-140 199l-140 -199h-111z" />
    <glyph glyph-name="Y025" unicode="y" horiz-adv-x="500" 
d="M208 -3l-197 477h104l141 -370h2l134 370h97l-225 -576q-28 -72 -56 -100q-38 -38 -106 -38q-50 0 -80 13l11 82q30 -11 54 -11q39 0 61 21q15 19 31 57z" />
    <glyph glyph-name="Z026" unicode="z" horiz-adv-x="463" 
d="M35 0v81l269 315h-260v78h370v-80l-271 -316h285v-78h-393z" />
    <glyph glyph-name="braceleft" unicode="{" horiz-adv-x="333" 
d="M304 732v-72h-45q-51 0 -51 -87v-151q2 -64 -32 -99q-24 -27 -52 -34v-3q28 -4 52 -30q34 -35 32 -104v-150q0 -86 51 -86h45v-72h-75q-43 0 -71 36q-34 40 -34 117v134q-2 56 -26 86q-22 31 -58 31v78q36 0 58 31q24 30 26 86v158q0 60 34 97q30 34 71 34h75z" />
    <glyph glyph-name="bar" unicode="|" horiz-adv-x="222" 
d="M72 750h78v-1000h-78v1000z" />
    <glyph glyph-name="braceright" unicode="}" horiz-adv-x="333" 
d="M29 -156v72h45q51 0 51 87v151q-2 64 32 99q24 27 52 34v3q-28 4 -52 30q-34 35 -32 104v150q0 86 -51 86h-45v72h75q42 0 71 -36q34 -40 34 -117v-134q0 -55 25 -86q24 -31 59 -31v-78q-35 0 -59 -31q-25 -31 -25 -86v-158q0 -60 -34 -97q-30 -34 -71 -34h-75z" />
    <glyph glyph-name="asciitilde" unicode="~" horiz-adv-x="666" 
d="M530 378l40 -62q-52 -88 -128 -88q-40 0 -116 36q-77 36 -106 36q-48 0 -84 -72l-40 62q52 88 133 88q43 0 113 -36q70 -37 99 -37q52 0 89 73z" />
    <glyph glyph-name="nbspace" unicode="&#xa0;" horiz-adv-x="278" 
 />
    <glyph glyph-name="exclamdown" unicode="&#xa1;" horiz-adv-x="278" 
d="M93 -222v504h96v-504h-96zM186 380q-20 -20 -47 -20q-26 0 -46 20t-20 46q0 27 20 47q19 19 46 19q28 0 47 -19t19 -47q0 -27 -19 -46z" />
    <glyph glyph-name="cent" unicode="&#xa2;" 
d="M342 408v-342q63 2 106 52l59 -58q-57 -64 -165 -72v-66h-54v66q-99 11 -158 80q-58 67 -58 169q0 101 58 168t158 81v66h54v-66q106 -4 167 -76l-65 -59q-46 55 -102 57zM288 66v342q-59 -9 -94 -59q-32 -47 -32 -110q0 -64 33 -112q34 -50 93 -61z" />
    <glyph glyph-name="sterling" unicode="&#xa3;" 
d="M432 400v-72h-162v-244h246v-84h-444v84h102v244h-96v72h96v100q0 93 55 154q61 66 165 66t169 -62l-61 -70q-50 48 -98 48q-58 0 -93 -36q-41 -44 -41 -124v-76h162z" />
    <glyph glyph-name="currency" unicode="&#xa4;" 
d="M21 555l57 56l49 -48q70 49 151 49q84 0 151 -49l49 48l57 -56l-49 -49q49 -67 49 -151t-49 -151l49 -49l-57 -57l-49 49q-64 -49 -151 -49q-84 0 -151 49l-49 -49l-57 57l49 49q-49 67 -49 151t49 151zM151 228q52 -52 127 -52t127 52t52 127t-52 127t-127 52t-127 -52
t-52 -127t52 -127z" />
    <glyph glyph-name="yen" unicode="&#xa5;" 
d="M236 0v186h-171v66h171v53l-17 28h-154v66h114l-184 309h100l179 -316l185 316h102l-186 -309h116v-66h-154l-17 -28v-53h171v-66h-171v-186h-84z" />
    <glyph glyph-name="brokenbar" unicode="&#xa6;" horiz-adv-x="222" 
d="M72 675h78v-350h-78v350zM72 175h78v-350h-78v350z" />
    <glyph glyph-name="section" unicode="&#xa7;" 
d="M483 626l-84 -46q-24 60 -101 62q-44 0 -69 -19q-30 -21 -30 -59q0 -39 46 -69q21 -15 102 -50q147 -67 147 -166q0 -87 -83 -131q65 -44 65 -121q0 -81 -66 -129q-58 -42 -144 -42q-153 0 -204 121l87 41q25 -78 124 -78q41 0 70 20q31 24 31 67q0 35 -46 63
q-17 11 -101 51q-148 69 -148 152q0 103 98 151q-80 45 -80 118q0 77 64 123q59 41 139 41q137 0 183 -100zM322 362l-79 38q-74 -29 -74 -79q0 -41 33 -66q15 -12 65 -36l77 -37q60 38 60 88t-82 92z" />
    <glyph glyph-name="dieresis" unicode="&#xa8;" horiz-adv-x="240" 
d="M61 698q19 -16 19 -41t-17 -45q-18 -18 -45 -18q-28 0 -44 18q-18 18 -18 45q0 25 19 41t43 16t43 -16zM265 698q19 -16 19 -41t-17 -45q-18 -18 -45 -18q-28 0 -44 18q-18 18 -18 45q0 25 19 41t43 16t43 -16z" />
    <glyph glyph-name="copyright" unicode="&#xa9;" horiz-adv-x="800" 
d="M137 617q109 109 263 109t263 -109t109 -263t-109 -263t-263 -109t-263 109t-109 263t109 263zM512 286h77q-16 -73 -65 -114q-49 -43 -121 -43q-103 0 -163 63q-59 62 -59 165q0 105 57 165q58 63 162 63q76 0 126 -39q51 -40 63 -114h-77q-21 81 -111 81
q-142 0 -142 -154q0 -68 38 -112q40 -46 106 -46q91 0 109 85zM184 138q88 -90 216 -90t216 90q90 88 90 216t-90 216q-88 90 -216 90t-216 -90q-90 -88 -90 -216t90 -216z" />
    <glyph glyph-name="ordfeminine" unicode="&#xaa;" horiz-adv-x="337" 
d="M308 425h-66v44l-2 1q-24 -51 -100 -51q-44 0 -73 21q-33 24 -33 65q0 103 196 103h12v10q0 48 -68 48q-53 0 -89 -33l-35 45q48 42 123 42q135 0 135 -99v-196zM242 560h-2q-62 0 -91 -6q-49 -10 -49 -45q0 -36 60 -36q82 0 82 68v19z" />
    <glyph glyph-name="guillemotleft" unicode="&#xab;" horiz-adv-x="500" 
d="M193 27l-146 216l145 216l62 -41l-117 -175l118 -175zM391 27l-146 216l145 216l62 -41l-117 -175l118 -175z" />
    <glyph glyph-name="logicalnot" unicode="&#xac;" horiz-adv-x="666" 
d="M600 420v-279h-78v201h-456v78h534z" />
    <glyph glyph-name="softhyphen" unicode="&#xad;" horiz-adv-x="316" 
d="M281 284v-84h-246v84h246z" />
    <glyph glyph-name="registered" unicode="&#xae;" horiz-adv-x="800" 
d="M257 144v425h164q150 0 150 -128q0 -105 -102 -117l111 -180h-82l-106 174h-57v-174h-78zM335 503v-119h57q46 0 69 9q32 14 32 51q0 61 -101 59h-57zM137 617q109 109 263 109t263 -109t109 -263t-109 -263t-263 -109t-263 109t-109 263t109 263zM184 138
q88 -90 216 -90t216 90q90 88 90 216t-90 216q-88 90 -216 90t-216 -90q-90 -88 -90 -216t90 -216z" />
    <glyph glyph-name="macron" unicode="&#xaf;" horiz-adv-x="240" 
d="M264 666v-66h-288v66h288z" />
    <glyph glyph-name="degree" unicode="&#xb0;" horiz-adv-x="400" 
d="M95 676q44 44 105 44t105 -44t44 -105t-44 -105t-105 -44t-105 44t-44 105t44 105zM141 512q25 -24 59 -24q35 0 59 24q24 26 24 59q0 35 -24 59t-59 24q-34 0 -59 -24q-24 -24 -24 -59q0 -33 24 -59z" />
    <glyph glyph-name="plusminus" unicode="&#xb1;" horiz-adv-x="666" 
d="M66 315v78h228v163h78v-163h228v-78h-228v-150h-78v150h-228zM66 51v78h534v-78h-534z" />
    <glyph glyph-name="twosuperior" unicode="&#xb2;" horiz-adv-x="361" 
d="M26 289v76l179 160q45 41 45 73q0 26 -19 41q-18 15 -46 15q-63 0 -68 -59l-84 6q4 57 48 89q41 30 104 30q65 0 106 -30q43 -31 43 -90q0 -62 -71 -124l-141 -121h213v-66h-309z" />
    <glyph glyph-name="threesuperior" unicode="&#xb3;" horiz-adv-x="361" 
d="M140 477v66h18q90 0 90 57q0 24 -18 39t-47 15q-53 0 -69 -45l-83 20q28 91 148 91q63 0 103 -28q44 -32 44 -84q0 -78 -78 -96v-2q43 -5 66 -35q23 -29 23 -68q0 -57 -47 -92q-44 -32 -108 -32q-130 0 -158 99l83 20q17 -53 75 -53q32 0 54 18q23 18 23 46q0 65 -102 64
h-17z" />
    <glyph glyph-name="acute" unicode="&#xb4;" horiz-adv-x="240" 
d="M54 564l104 144h128l-149 -144h-83z" />
    <glyph glyph-name="mu" unicode="&#xb5;" 
d="M68 -228v702h90v-280q0 -122 108 -122q59 0 94 38q38 41 38 120v244h90v-474h-90v73h-2q-39 -85 -156 -85q-46 0 -82 18v-234h-90z" />
    <glyph glyph-name="paragraph" unicode="&#xb6;" horiz-adv-x="600" 
d="M260 -126v444q-92 0 -150 54q-59 53 -59 131q0 97 61 151t167 54h249v-834h-78v768h-112v-768h-78z" />
    <glyph glyph-name="periodcentered" unicode="&#xb7;" horiz-adv-x="278" 
d="M93 350q19 19 46 19q28 0 47 -19t19 -47q0 -27 -19 -46q-20 -20 -47 -20q-26 0 -46 20t-20 46q0 27 20 47z" />
    <glyph glyph-name="cedilla" unicode="&#xb8;" horiz-adv-x="240" 
d="M5 -205l19 40q38 -15 78 -15q61 0 61 42q0 61 -94 33l-21 18l61 87h49l-44 -61h29q37 1 63 -17q29 -20 29 -55q0 -48 -41 -74q-34 -21 -84 -21q-56 0 -105 23z" />
    <glyph glyph-name="onesuperior" unicode="&#xb9;" horiz-adv-x="361" 
d="M154 289v359l-85 -72l-42 46l128 98h71v-431h-72z" />
    <glyph glyph-name="ordmasculine" unicode="&#xba;" horiz-adv-x="386" 
d="M313 679q44 -42 44 -110t-44 -109q-47 -41 -120 -41q-75 0 -119 41q-45 40 -45 109q0 68 45 110q44 41 119 41q73 0 120 -41zM101 569q0 -90 92 -90t92 90q0 91 -92 91t-92 -91z" />
    <glyph glyph-name="guillemotright" unicode="&#xbb;" horiz-adv-x="500" 
d="M307 459l146 -216l-145 -216l-62 41l117 175l-118 175zM109 459l146 -216l-145 -216l-62 41l117 175l-118 175z" />
    <glyph glyph-name="onequarter" unicode="&#xbc;" horiz-adv-x="834" 
d="M673 0v94h-196v58l183 279h79v-271h62v-66h-62v-94h-66zM667 160v187h-2l-116 -187h118zM152 0l439 740l60 -32l-439 -740zM160 289v359l-85 -72l-42 46l128 98h71v-431h-72z" />
    <glyph glyph-name="onehalf" unicode="&#xbd;" horiz-adv-x="834" 
d="M158 289v359l-85 -72l-42 46l128 98h71v-431h-72zM494 0v76l179 160q45 40 45 73q0 26 -19 41q-18 15 -46 15q-63 0 -68 -59l-84 6q4 57 48 89q41 30 104 30q66 0 106 -30q43 -31 43 -90q0 -62 -71 -124l-141 -121h213v-66h-309zM140 0l439 740l60 -32l-439 -740z" />
    <glyph glyph-name="threequarters" unicode="&#xbe;" horiz-adv-x="834" 
d="M693 0v94h-196v58l183 279h79v-271h62v-66h-62v-94h-66zM693 160v187h-2l-116 -187h118zM192 0l439 740l60 -32l-439 -740zM139 477v66h18q90 0 90 57q0 24 -18 39t-47 15q-52 0 -69 -45l-83 20q28 91 148 91q63 0 103 -28q44 -32 44 -84q0 -78 -78 -96v-2q43 -5 66 -35
q23 -29 23 -68q0 -57 -47 -92q-44 -32 -108 -32q-129 0 -158 99l83 20q17 -53 75 -53q31 0 54 18t23 46q0 65 -102 64h-17z" />
    <glyph glyph-name="questiondown" unicode="&#xbf;" horiz-adv-x="500" 
d="M194 288h96v-61q0 -50 -16 -78q-9 -16 -55 -60q-91 -88 -91 -139q0 -45 31 -76q30 -30 75 -30q48 0 79 31t37 81l102 -10q-13 -86 -72 -136q-62 -50 -148 -50t-142 48q-58 51 -58 137q0 78 42 120l70 71q50 53 50 108v44zM290 380q-20 -20 -47 -20q-26 0 -46 20t-20 46
q0 27 20 47q19 19 46 19q28 0 47 -19t19 -47q0 -27 -19 -46z" />
    <glyph glyph-name="Agrave" unicode="&#xc0;" horiz-adv-x="704" 
d="M1 0l312 708h87l303 -708h-112l-71 175h-337l-70 -175h-112zM217 259h268l-132 325h-2zM314 892l104 -144h-83l-149 144h128z" />
    <glyph glyph-name="Aacute" unicode="&#xc1;" horiz-adv-x="704" 
d="M1 0l312 708h87l303 -708h-112l-71 175h-337l-70 -175h-112zM217 259h268l-132 325h-2zM286 748l104 144h128l-149 -144h-83z" />
    <glyph glyph-name="Acircumflex" unicode="&#xc2;" horiz-adv-x="704" 
d="M1 0l312 708h87l303 -708h-112l-71 175h-337l-70 -175h-112zM217 259h268l-132 325h-2zM517 748h-91l-74 96l-74 -96h-91l112 144h106z" />
    <glyph glyph-name="Atilde" unicode="&#xc3;" horiz-adv-x="704" 
d="M1 0l312 708h87l303 -708h-112l-71 175h-337l-70 -175h-112zM217 259h268l-132 325h-2zM232 760h-48q18 104 101 104q26 0 84 -23q46 -17 54 -17q35 0 49 44h48q-17 -104 -94 -104q-28 0 -81 21q-44 19 -66 19q-33 0 -47 -44z" />
    <glyph glyph-name="Adieresis" unicode="&#xc4;" horiz-adv-x="704" 
d="M1 0l312 708h87l303 -708h-112l-71 175h-337l-70 -175h-112zM217 259h268l-132 325h-2zM293 882q19 -16 19 -41t-17 -45q-18 -18 -45 -18q-28 0 -44 18q-18 18 -18 45q0 25 19 41t43 16t43 -16zM497 882q19 -16 19 -41t-17 -45q-18 -18 -45 -18q-28 0 -44 18
q-18 18 -18 45q0 25 19 41t43 16t43 -16z" />
    <glyph glyph-name="Aring" unicode="&#xc5;" horiz-adv-x="704" 
d="M1 0l312 708h87l303 -708h-112l-71 175h-337l-70 -175h-112zM217 259h268l-132 325h-2zM281 896q28 28 71 28q44 0 72 -28q32 -29 30 -70q1 -42 -30 -70q-32 -29 -72 -29q-43 0 -71 28q-31 28 -31 70q0 41 31 71zM394 866q-16 16 -42 16t-42 -16q-18 -16 -18 -41
q0 -23 18 -40q16 -16 42 -16t42 16q18 17 18 40q0 25 -18 41z" />
    <glyph glyph-name="AE" unicode="&#xc6;" horiz-adv-x="963" 
d="M-8 0l458 708h456v-90h-295v-211h277v-90h-277v-227h307v-90h-403v172h-304l-101 -172h-118zM263 262h252v356h-19z" />
    <glyph glyph-name="Ccedilla" unicode="&#xc7;" horiz-adv-x="704" 
d="M664 616l-80 -61q-62 81 -171 81q-117 0 -192 -84q-72 -81 -72 -204q0 -118 70 -194q73 -82 194 -82q117 0 185 95l81 -61q-90 -124 -268 -124q-11 0 -13 1l-32 -44h29q37 1 63 -17q29 -20 29 -55q0 -48 -41 -74q-34 -21 -84 -21q-56 0 -105 23l19 40q38 -15 78 -15
q61 0 61 42q0 61 -94 33l-21 18l52 74q-137 21 -224 131q-81 102 -81 230q0 166 103 272t266 106q164 0 248 -110z" />
    <glyph glyph-name="Egrave" unicode="&#xc8;" horiz-adv-x="611" 
d="M91 0v708h457v-90h-361v-211h336v-90h-336v-227h379v-90h-475zM268 892l104 -144h-83l-149 144h128z" />
    <glyph glyph-name="Eacute" unicode="&#xc9;" horiz-adv-x="611" 
d="M91 0v708h457v-90h-361v-211h336v-90h-336v-227h379v-90h-475zM240 748l104 144h128l-149 -144h-83z" />
    <glyph glyph-name="Ecircumflex" unicode="&#xca;" horiz-adv-x="611" 
d="M91 0v708h457v-90h-361v-211h336v-90h-336v-227h379v-90h-475zM471 748h-91l-74 96l-74 -96h-91l112 144h106z" />
    <glyph glyph-name="Edieresis" unicode="&#xcb;" horiz-adv-x="611" 
d="M91 0v708h457v-90h-361v-211h336v-90h-336v-227h379v-90h-475zM247 882q19 -16 19 -41t-17 -45q-18 -18 -45 -18q-28 0 -44 18q-18 18 -18 45q0 25 19 41t43 16t43 -16zM451 882q19 -16 19 -41t-17 -45q-18 -18 -45 -18q-28 0 -44 18q-18 18 -18 45q0 25 19 41t43 16
t43 -16z" />
    <glyph glyph-name="Igrave" unicode="&#xcc;" horiz-adv-x="278" 
d="M91 0v708h96v-708h-96zM101 892l104 -144h-83l-149 144h128z" />
    <glyph glyph-name="Iacute" unicode="&#xcd;" horiz-adv-x="278" 
d="M91 0v708h96v-708h-96zM73 748l104 144h128l-149 -144h-83z" />
    <glyph glyph-name="Icircumflex" unicode="&#xce;" horiz-adv-x="278" 
d="M91 0v708h96v-708h-96zM304 748h-91l-74 96l-74 -96h-91l112 144h106z" />
    <glyph glyph-name="Idieresis" unicode="&#xcf;" horiz-adv-x="278" 
d="M91 0v708h96v-708h-96zM80 882q19 -16 19 -41t-17 -45q-18 -18 -45 -18q-28 0 -44 18q-18 18 -18 45q0 25 19 41t43 16t43 -16zM284 882q19 -16 19 -41t-17 -45q-18 -18 -45 -18t-44 18q-18 18 -18 45q0 25 19 41t43 16t43 -16z" />
    <glyph glyph-name="Eth" unicode="&#xd0;" horiz-adv-x="741" 
d="M75 0v336h-72v66h72v306h247q200 0 298 -128q74 -98 74 -226q0 -144 -99 -245q-108 -109 -289 -109h-231zM171 336v-246h121q128 0 211 66q89 72 89 198q0 96 -52 166q-74 98 -225 98h-144v-216h234v-66h-234z" />
    <glyph glyph-name="Ntilde" unicode="&#xd1;" horiz-adv-x="796" 
d="M91 0v708h126l390 -582h2v582h96v-708h-122l-394 582h-2v-582h-96zM278 760h-48q18 104 101 104q26 0 84 -23q46 -17 54 -17q35 0 49 44h48q-17 -104 -94 -104q-28 0 -81 21q-44 19 -66 19q-33 0 -47 -44z" />
    <glyph glyph-name="Ograve" unicode="&#xd2;" horiz-adv-x="832" 
d="M151 89q-104 107 -104 265t104 265t265 107t266 -107q103 -106 103 -265t-103 -265q-105 -107 -266 -107t-265 107zM610 155q73 79 73 199t-73 199q-75 83 -194 83t-194 -83q-73 -79 -73 -199t73 -199q75 -83 194 -83t194 83zM378 892l104 -144h-83l-149 144h128z" />
    <glyph glyph-name="Oacute" unicode="&#xd3;" horiz-adv-x="832" 
d="M151 89q-104 107 -104 265t104 265t265 107t266 -107q103 -106 103 -265t-103 -265q-105 -107 -266 -107t-265 107zM610 155q73 79 73 199t-73 199q-75 83 -194 83t-194 -83q-73 -79 -73 -199t73 -199q75 -83 194 -83t194 83zM350 748l104 144h128l-149 -144h-83z" />
    <glyph glyph-name="Ocircumflex" unicode="&#xd4;" horiz-adv-x="832" 
d="M151 89q-104 107 -104 265t104 265t265 107t266 -107q103 -106 103 -265t-103 -265q-105 -107 -266 -107t-265 107zM610 155q73 79 73 199t-73 199q-75 83 -194 83t-194 -83q-73 -79 -73 -199t73 -199q75 -83 194 -83t194 83zM581 748h-91l-74 96l-74 -96h-91l112 144
h106z" />
    <glyph glyph-name="Otilde" unicode="&#xd5;" horiz-adv-x="832" 
d="M151 89q-104 107 -104 265t104 265t265 107t266 -107q103 -106 103 -265t-103 -265q-105 -107 -266 -107t-265 107zM610 155q73 79 73 199t-73 199q-75 83 -194 83t-194 -83q-73 -79 -73 -199t73 -199q75 -83 194 -83t194 83zM296 760h-48q18 104 101 104q26 0 84 -23
q46 -17 54 -17q35 0 49 44h48q-17 -104 -94 -104q-28 0 -81 21q-44 19 -66 19q-33 0 -47 -44z" />
    <glyph glyph-name="Odieresis" unicode="&#xd6;" horiz-adv-x="832" 
d="M151 89q-104 107 -104 265t104 265t265 107t266 -107q103 -106 103 -265t-103 -265q-105 -107 -266 -107t-265 107zM610 155q73 79 73 199t-73 199q-75 83 -194 83t-194 -83q-73 -79 -73 -199t73 -199q75 -83 194 -83t194 83zM357 882q19 -16 19 -41t-17 -45
q-18 -18 -45 -18q-28 0 -44 18q-18 18 -18 45q0 25 19 41t43 16t43 -16zM561 882q19 -16 19 -41t-17 -45q-18 -18 -45 -18t-44 18q-18 18 -18 45q0 25 19 41t43 16t43 -16z" />
    <glyph glyph-name="multiply" unicode="&#xd7;" horiz-adv-x="666" 
d="M68 92l210 211l-212 212l55 55l212 -212l213 212l54 -55l-212 -212l212 -212l-56 -55l-211 212l-211 -212z" />
    <glyph glyph-name="Oslash" unicode="&#xd8;" horiz-adv-x="832" 
d="M621 540l-375 -409q74 -59 170 -59q119 0 194 83q73 79 73 199q0 109 -62 186zM207 173l374 407q-71 56 -165 56q-119 0 -194 -83q-73 -79 -73 -199q0 -105 58 -181zM98 -30l-43 38l85 93q-93 103 -93 253q0 158 104 265t265 107q133 0 230 -76l83 90l42 -38l-83 -90
q97 -103 97 -258q0 -159 -103 -265q-105 -107 -266 -107q-137 0 -234 79z" />
    <glyph glyph-name="Ugrave" unicode="&#xd9;" horiz-adv-x="704" 
d="M78 708h96v-434q0 -78 39 -134q48 -68 139 -68t139 68q39 56 39 134v434h96v-449q0 -122 -79 -200q-77 -77 -195 -77t-195 77q-79 78 -79 200v449zM314 892l104 -144h-83l-149 144h128z" />
    <glyph glyph-name="Uacute" unicode="&#xda;" horiz-adv-x="704" 
d="M78 708h96v-434q0 -78 39 -134q48 -68 139 -68t139 68q39 56 39 134v434h96v-449q0 -122 -79 -200q-77 -77 -195 -77t-195 77q-79 78 -79 200v449zM286 748l104 144h128l-149 -144h-83z" />
    <glyph glyph-name="Ucircumflex" unicode="&#xdb;" horiz-adv-x="704" 
d="M78 708h96v-434q0 -78 39 -134q48 -68 139 -68t139 68q39 56 39 134v434h96v-449q0 -122 -79 -200q-77 -77 -195 -77t-195 77q-79 78 -79 200v449zM517 748h-91l-74 96l-74 -96h-91l112 144h106z" />
    <glyph glyph-name="Udieresis" unicode="&#xdc;" horiz-adv-x="704" 
d="M78 708h96v-434q0 -78 39 -134q48 -68 139 -68t139 68q39 56 39 134v434h96v-449q0 -122 -79 -200q-77 -77 -195 -77t-195 77q-79 78 -79 200v449zM293 882q19 -16 19 -41t-17 -45q-18 -18 -45 -18q-28 0 -44 18q-18 18 -18 45q0 25 19 41t43 16t43 -16zM497 882
q19 -16 19 -41t-17 -45q-18 -18 -45 -18q-28 0 -44 18q-18 18 -18 45q0 25 19 41t43 16t43 -16z" />
    <glyph glyph-name="Yacute" unicode="&#xdd;" horiz-adv-x="612" 
d="M258 0v302l-268 406h123l193 -311l199 311h117l-268 -406v-302h-96zM240 748l104 144h128l-149 -144h-83z" />
    <glyph glyph-name="Thorn" unicode="&#xde;" horiz-adv-x="593" 
d="M91 0v708h96v-145h153q123 0 181 -66q46 -49 46 -132t-46 -132q-58 -66 -181 -66h-153v-167h-96zM187 479v-228h126q152 0 152 114t-152 114h-126z" />
    <glyph glyph-name="germandbls" unicode="&#xdf;" horiz-adv-x="611" 
d="M68 0v509q0 122 42 182q54 77 183 77q88 0 143 -46q60 -50 60 -135q0 -122 -111 -155v-2q69 -10 115 -59q55 -58 55 -151q0 -105 -68 -170q-68 -62 -174 -62q-37 0 -71 9v81q26 -6 53 -6q75 0 119 41q45 42 45 115q0 76 -50 117q-47 38 -124 38h-14v84h16q50 0 82 29
q31 30 31 80q0 56 -36 84q-30 24 -76 24q-130 0 -130 -164v-520h-90z" />
    <glyph glyph-name="Agrave036" unicode="&#xe0;" horiz-adv-x="519" 
d="M124 360l-54 56q73 70 188 70q100 0 152 -48q46 -43 46 -110v-242q0 -55 4 -86h-80q-3 36 -3 72h-2q-55 -84 -166 -84q-69 0 -115 37q-49 39 -49 105q0 164 261 164h66v20q0 40 -28 68q-32 32 -85 32q-65 0 -135 -54zM372 228h-48q-189 0 -189 -91q0 -77 102 -77
q69 0 105 45q30 37 30 93v30zM222 708l104 -144h-83l-149 144h128z" />
    <glyph glyph-name="Aacute033" unicode="&#xe1;" horiz-adv-x="519" 
d="M124 360l-54 56q73 70 188 70q100 0 152 -48q46 -43 46 -110v-242q0 -55 4 -86h-80q-3 36 -3 72h-2q-55 -84 -166 -84q-69 0 -115 37q-49 39 -49 105q0 164 261 164h66v20q0 40 -28 68q-32 32 -85 32q-65 0 -135 -54zM372 228h-48q-189 0 -189 -91q0 -77 102 -77
q69 0 105 45q30 37 30 93v30zM194 564l104 144h128l-149 -144h-83z" />
    <glyph glyph-name="Acircumflex034" unicode="&#xe2;" horiz-adv-x="519" 
d="M124 360l-54 56q73 70 188 70q100 0 152 -48q46 -43 46 -110v-242q0 -55 4 -86h-80q-3 36 -3 72h-2q-55 -84 -166 -84q-69 0 -115 37q-49 39 -49 105q0 164 261 164h66v20q0 40 -28 68q-32 32 -85 32q-65 0 -135 -54zM372 228h-48q-189 0 -189 -91q0 -77 102 -77
q69 0 105 45q30 37 30 93v30zM425 564h-91l-74 96l-74 -96h-91l112 144h106z" />
    <glyph glyph-name="Atilde038" unicode="&#xe3;" horiz-adv-x="519" 
d="M124 360l-54 56q73 70 188 70q100 0 152 -48q46 -43 46 -110v-242q0 -55 4 -86h-80q-3 36 -3 72h-2q-55 -84 -166 -84q-69 0 -115 37q-49 39 -49 105q0 164 261 164h66v20q0 40 -28 68q-32 32 -85 32q-65 0 -135 -54zM372 228h-48q-189 0 -189 -91q0 -77 102 -77
q69 0 105 45q30 37 30 93v30zM140 576h-48q18 104 101 104q26 0 84 -23q46 -17 54 -17q35 0 49 44h48q-17 -104 -94 -104q-28 0 -81 21q-44 19 -66 19q-33 0 -47 -44z" />
    <glyph glyph-name="Adieresis035" unicode="&#xe4;" horiz-adv-x="519" 
d="M124 360l-54 56q73 70 188 70q100 0 152 -48q46 -43 46 -110v-242q0 -55 4 -86h-80q-3 36 -3 72h-2q-55 -84 -166 -84q-69 0 -115 37q-49 39 -49 105q0 164 261 164h66v20q0 40 -28 68q-32 32 -85 32q-65 0 -135 -54zM372 228h-48q-189 0 -189 -91q0 -77 102 -77
q69 0 105 45q30 37 30 93v30zM201 698q19 -16 19 -41t-17 -45q-18 -18 -45 -18q-28 0 -44 18q-18 18 -18 45q0 25 19 41t43 16t43 -16zM405 698q19 -16 19 -41t-17 -45q-18 -18 -45 -18q-28 0 -44 18q-18 18 -18 45q0 25 19 41t43 16t43 -16z" />
    <glyph glyph-name="Aring037" unicode="&#xe5;" horiz-adv-x="519" 
d="M124 360l-54 56q73 70 188 70q100 0 152 -48q46 -43 46 -110v-242q0 -55 4 -86h-80q-3 36 -3 72h-2q-55 -84 -166 -84q-69 0 -115 37q-49 39 -49 105q0 164 261 164h66v20q0 40 -28 68q-32 32 -85 32q-65 0 -135 -54zM372 228h-48q-189 0 -189 -91q0 -77 102 -77
q69 0 105 45q30 37 30 93v30zM189 722q28 28 71 28q44 0 72 -28q32 -29 30 -70q1 -42 -30 -70q-32 -29 -72 -29q-43 0 -71 28q-31 28 -31 70q0 41 31 71zM302 692q-16 16 -42 16t-42 -16q-18 -16 -18 -41q0 -23 18 -40q16 -16 42 -16t42 16q18 17 18 40q0 25 -18 41z" />
    <glyph glyph-name="AE027" unicode="&#xe6;" horiz-adv-x="852" 
d="M813 246v-42h-353q0 -60 37 -100q41 -44 106 -44q81 0 123 75l73 -55q-84 -98 -198 -98q-128 0 -185 97q-70 -97 -194 -97q-90 0 -139 48q-44 44 -44 105q0 141 197 141h140v15q0 53 -30 87q-33 36 -89 36q-67 0 -134 -54l-56 57q77 69 189 69q121 0 170 -76
q67 76 166 76q119 0 178 -90q43 -64 43 -150zM376 204h-142q-99 0 -99 -69q0 -34 29 -58q29 -23 70 -23q58 0 99 36q43 39 43 100v14zM460 276h257q-5 132 -126 132q-61 0 -97 -39q-34 -34 -34 -93z" />
    <glyph glyph-name="Ccedilla039" unicode="&#xe7;" horiz-adv-x="482" 
d="M475 410l-68 -62q-50 53 -118 53q-71 0 -111 -51q-37 -46 -37 -117q0 -67 42 -114q44 -47 111 -47q70 0 115 53l64 -64q-63 -71 -172 -72l-36 -50h29q37 1 63 -17q29 -20 29 -55q0 -48 -41 -74q-35 -21 -84 -21q-56 0 -105 23l19 40q37 -15 78 -15q61 0 61 42
q0 61 -94 33l-21 18l55 79q-93 11 -151 77q-58 67 -58 166q0 109 69 180q69 70 179 70q113 0 182 -75z" />
    <glyph glyph-name="Egrave043" unicode="&#xe8;" 
d="M516 204h-380q0 -60 49 -100q47 -38 111 -38q71 0 130 71l68 -52q-75 -97 -210 -97q-110 0 -178 72q-66 69 -66 177q0 107 69 178q71 71 176 71q117 0 178 -79q53 -68 53 -171v-32zM136 276h284q-2 63 -35 99q-36 39 -102 39q-63 0 -107 -45q-40 -40 -40 -93zM240 708
l104 -144h-83l-149 144h128z" />
    <glyph glyph-name="Eacute040" unicode="&#xe9;" 
d="M516 204h-380q0 -60 49 -100q47 -38 111 -38q71 0 130 71l68 -52q-75 -97 -210 -97q-110 0 -178 72q-66 69 -66 177q0 107 69 178q71 71 176 71q117 0 178 -79q53 -68 53 -171v-32zM136 276h284q-2 63 -35 99q-36 39 -102 39q-63 0 -107 -45q-40 -40 -40 -93zM212 564
l104 144h128l-149 -144h-83z" />
    <glyph glyph-name="Ecircumflex041" unicode="&#xea;" 
d="M516 204h-380q0 -60 49 -100q47 -38 111 -38q71 0 130 71l68 -52q-75 -97 -210 -97q-110 0 -178 72q-66 69 -66 177q0 107 69 178q71 71 176 71q117 0 178 -79q53 -68 53 -171v-32zM136 276h284q-2 63 -35 99q-36 39 -102 39q-63 0 -107 -45q-40 -40 -40 -93zM443 564
h-91l-74 96l-74 -96h-91l112 144h106z" />
    <glyph glyph-name="Edieresis042" unicode="&#xeb;" 
d="M516 204h-380q0 -60 49 -100q47 -38 111 -38q71 0 130 71l68 -52q-75 -97 -210 -97q-110 0 -178 72q-66 69 -66 177q0 107 69 178q71 71 176 71q117 0 178 -79q53 -68 53 -171v-32zM136 276h284q-2 63 -35 99q-36 39 -102 39q-63 0 -107 -45q-40 -40 -40 -93zM219 698
q19 -16 19 -41t-17 -45q-18 -18 -45 -18q-28 0 -44 18q-18 18 -18 45q0 25 19 41t43 16t43 -16zM423 698q19 -16 19 -41t-17 -45q-18 -18 -45 -18q-28 0 -44 18q-18 18 -18 45q0 25 19 41t43 16t43 -16z" />
    <glyph glyph-name="Igrave047" unicode="&#xec;" horiz-adv-x="240" 
d="M75 0v474h90v-474h-90zM82 708l104 -144h-83l-149 144h128z" />
    <glyph glyph-name="Iacute044" unicode="&#xed;" horiz-adv-x="240" 
d="M75 0v474h90v-474h-90zM54 564l104 144h128l-149 -144h-83z" />
    <glyph glyph-name="Icircumflex045" unicode="&#xee;" horiz-adv-x="240" 
d="M75 0v474h90v-474h-90zM285 564h-91l-74 96l-74 -96h-91l112 144h106z" />
    <glyph glyph-name="Idieresis046" unicode="&#xef;" horiz-adv-x="240" 
d="M75 0v474h90v-474h-90zM61 698q19 -16 19 -41t-17 -45q-18 -18 -45 -18q-28 0 -44 18q-18 18 -18 45q0 25 19 41t43 16t43 -16zM265 698q19 -16 19 -41t-17 -45q-18 -18 -45 -18q-28 0 -44 18q-18 18 -18 45q0 25 19 41t43 16t43 -16z" />
    <glyph glyph-name="Eth032" unicode="&#xf0;" horiz-adv-x="594" 
d="M423 756l52 -44l-112 -55q186 -199 186 -388q0 -127 -66 -204q-68 -77 -186 -77q-106 0 -179 73q-73 72 -73 176t73 176q73 73 179 73q81 0 125 -50l2 2q-48 86 -144 180l-107 -52l-47 46l106 53l-85 71l79 46l89 -78zM183 119q44 -47 114 -47t114 47q42 45 42 118
t-42 119q-43 46 -114 46t-114 -46q-42 -46 -42 -119t42 -118z" />
    <glyph glyph-name="Ntilde048" unicode="&#xf1;" 
d="M68 0v474h90v-73h2q39 85 156 85q75 0 121 -43q51 -48 51 -138v-305h-90v280q0 122 -108 122q-59 0 -94 -38q-38 -41 -38 -120v-244h-90zM158 576h-48q18 104 101 104q26 0 84 -23q46 -17 54 -17q35 0 49 44h48q-17 -104 -94 -104q-28 0 -81 21q-44 19 -66 19
q-33 0 -47 -44z" />
    <glyph glyph-name="Ograve052" unicode="&#xf2;" horiz-adv-x="594" 
d="M183 119q44 -47 114 -47t114 47q42 45 42 118t-42 119q-43 46 -114 46t-114 -46q-42 -46 -42 -119t42 -118zM118 413q73 73 179 73t179 -73q73 -72 73 -176t-73 -176q-73 -73 -179 -73t-179 73q-73 72 -73 176t73 176zM259 708l104 -144h-83l-149 144h128z" />
    <glyph glyph-name="Oacute049" unicode="&#xf3;" horiz-adv-x="594" 
d="M183 119q44 -47 114 -47t114 47q42 45 42 118t-42 119q-43 46 -114 46t-114 -46q-42 -46 -42 -119t42 -118zM118 413q73 73 179 73t179 -73q73 -72 73 -176t-73 -176q-73 -73 -179 -73t-179 73q-73 72 -73 176t73 176zM231 564l104 144h128l-149 -144h-83z" />
    <glyph glyph-name="Ocircumflex050" unicode="&#xf4;" horiz-adv-x="594" 
d="M183 119q44 -47 114 -47t114 47q42 45 42 118t-42 119q-43 46 -114 46t-114 -46q-42 -46 -42 -119t42 -118zM118 413q73 73 179 73t179 -73q73 -72 73 -176t-73 -176q-73 -73 -179 -73t-179 73q-73 72 -73 176t73 176zM462 564h-91l-74 96l-74 -96h-91l112 144h106z" />
    <glyph glyph-name="Otilde053" unicode="&#xf5;" horiz-adv-x="594" 
d="M183 119q44 -47 114 -47t114 47q42 45 42 118t-42 119q-43 46 -114 46t-114 -46q-42 -46 -42 -119t42 -118zM118 413q73 73 179 73t179 -73q73 -72 73 -176t-73 -176q-73 -73 -179 -73t-179 73q-73 72 -73 176t73 176zM177 576h-48q18 104 101 104q26 0 84 -23
q46 -17 54 -17q35 0 49 44h48q-17 -104 -94 -104q-29 0 -81 21q-44 19 -66 19q-33 0 -47 -44z" />
    <glyph glyph-name="Odieresis051" unicode="&#xf6;" horiz-adv-x="594" 
d="M183 119q44 -47 114 -47t114 47q42 45 42 118t-42 119q-43 46 -114 46t-114 -46q-42 -46 -42 -119t42 -118zM118 413q73 73 179 73t179 -73q73 -72 73 -176t-73 -176q-73 -73 -179 -73t-179 73q-73 72 -73 176t73 176zM238 698q19 -16 19 -41t-17 -45q-18 -18 -45 -18
t-44 18q-18 18 -18 45q0 25 19 41t43 16t43 -16zM442 698q19 -16 19 -41t-17 -45q-18 -18 -45 -18t-44 18q-18 18 -18 45q0 25 19 41t43 16t43 -16z" />
    <glyph glyph-name="divide" unicode="&#xf7;" horiz-adv-x="666" 
d="M66 341h534v-78h-534v78zM287 517q19 19 46 19q28 0 47 -19t19 -47q0 -27 -19 -46q-20 -20 -47 -20q-26 0 -46 20t-20 46q0 27 20 47zM287 181q19 19 46 19q28 0 47 -19t19 -47q0 -27 -19 -46q-20 -20 -47 -20q-26 0 -46 20t-20 46q0 27 20 47z" />
    <glyph glyph-name="Oslash029" unicode="&#xf8;" horiz-adv-x="594" 
d="M171 135l228 232q-41 35 -102 35q-71 0 -114 -46q-42 -46 -42 -119q0 -61 30 -102zM78 -32l-37 36l67 68q-63 68 -63 165q0 104 73 176q73 73 179 73q95 0 162 -58l75 75l36 -36l-75 -76q54 -67 54 -154q0 -104 -73 -176q-73 -73 -179 -73q-86 0 -150 49zM431 326
l-223 -227q36 -27 89 -27q70 0 114 47q42 45 42 118q0 52 -22 89z" />
    <glyph glyph-name="Ugrave058" unicode="&#xf9;" 
d="M488 474v-474h-90v73h-2q-39 -85 -156 -85q-74 0 -120 43q-52 48 -52 138v305h90v-280q0 -122 108 -122q59 0 94 38q38 41 38 120v244h90zM240 708l104 -144h-83l-149 144h128z" />
    <glyph glyph-name="Uacute055" unicode="&#xfa;" 
d="M488 474v-474h-90v73h-2q-39 -85 -156 -85q-74 0 -120 43q-52 48 -52 138v305h90v-280q0 -122 108 -122q59 0 94 38q38 41 38 120v244h90zM212 564l104 144h128l-149 -144h-83z" />
    <glyph glyph-name="Ucircumflex056" unicode="&#xfb;" 
d="M488 474v-474h-90v73h-2q-39 -85 -156 -85q-74 0 -120 43q-52 48 -52 138v305h90v-280q0 -122 108 -122q59 0 94 38q38 41 38 120v244h90zM443 564h-91l-74 96l-74 -96h-91l112 144h106z" />
    <glyph glyph-name="Udieresis057" unicode="&#xfc;" 
d="M488 474v-474h-90v73h-2q-39 -85 -156 -85q-74 0 -120 43q-52 48 -52 138v305h90v-280q0 -122 108 -122q59 0 94 38q38 41 38 120v244h90zM219 698q19 -16 19 -41t-17 -45q-18 -18 -45 -18q-28 0 -44 18q-18 18 -18 45q0 25 19 41t43 16t43 -16zM423 698q19 -16 19 -41
t-17 -45q-18 -18 -45 -18q-28 0 -44 18q-18 18 -18 45q0 25 19 41t43 16t43 -16z" />
    <glyph glyph-name="Yacute059" unicode="&#xfd;" horiz-adv-x="500" 
d="M208 -3l-197 477h104l141 -370h2l134 370h97l-225 -576q-28 -72 -56 -100q-38 -38 -106 -38q-50 0 -80 13l11 82q30 -11 54 -11q39 0 61 21q15 19 31 57zM184 564l104 144h128l-149 -144h-83z" />
    <glyph glyph-name="Thorn031" unicode="&#xfe;" horiz-adv-x="611" 
d="M68 -228v984h90v-350h2q53 80 165 80q107 0 175 -71q66 -71 66 -178q0 -106 -65 -177q-67 -72 -176 -72t-165 80h-2v-296h-90zM428 119q42 45 42 118t-42 119q-43 46 -114 46t-114 -46q-42 -46 -42 -119t42 -118q44 -47 114 -47t114 47z" />
    <glyph glyph-name="Ydieresis060" unicode="&#xff;" horiz-adv-x="500" 
d="M208 -3l-197 477h104l141 -370h2l134 370h97l-225 -576q-28 -72 -56 -100q-38 -38 -106 -38q-50 0 -80 13l11 82q30 -11 54 -11q39 0 61 21q15 19 31 57zM191 698q19 -16 19 -41t-17 -45q-18 -18 -45 -18t-44 18q-18 18 -18 45q0 25 19 41t43 16t43 -16zM395 698
q19 -16 19 -41t-17 -45q-18 -18 -45 -18q-28 0 -44 18q-18 18 -18 45q0 25 19 41t43 16t43 -16z" />
    <glyph glyph-name="abreve110" unicode="&#x102;" horiz-adv-x="704" 
d="M1 0l312 708h87l303 -708h-112l-71 175h-337l-70 -175h-112zM217 259h268l-132 325h-2zM195 885h55q14 -72 103 -72t103 72h53q-4 -67 -48 -103q-41 -35 -109 -35t-109 35q-44 36 -48 103z" />
    <glyph glyph-name="abreve" unicode="&#x103;" horiz-adv-x="519" 
d="M124 360l-54 56q73 70 188 70q100 0 152 -48q46 -43 46 -110v-242q0 -55 4 -86h-80q-3 36 -3 72h-2q-55 -84 -166 -84q-69 0 -115 37q-49 39 -49 105q0 164 261 164h66v20q0 40 -28 68q-32 32 -85 32q-65 0 -135 -54zM372 228h-48q-189 0 -189 -91q0 -77 102 -77
q69 0 105 45q30 37 30 93v30zM96 702h55q13 -72 103 -72t103 72h53q-4 -67 -48 -103q-41 -35 -109 -35t-109 35q-44 36 -48 103z" />
    <glyph glyph-name="dcroat062" unicode="&#x110;" horiz-adv-x="741" 
d="M75 0v336h-72v66h72v306h247q200 0 298 -128q74 -98 74 -226q0 -144 -99 -245q-108 -109 -289 -109h-231zM171 336v-246h121q128 0 211 66q89 72 89 198q0 96 -52 166q-74 98 -225 98h-144v-216h234v-66h-234z" />
    <glyph glyph-name="dcroat" unicode="&#x111;" horiz-adv-x="611" 
d="M411 119q42 45 42 118t-42 119q-43 46 -114 46t-114 -46q-42 -46 -42 -119t42 -118q44 -47 114 -47t114 47zM595 543h-52v-543h-90v68h-2q-56 -80 -165 -80q-108 0 -176 72q-65 71 -65 177q0 107 66 178q68 71 175 71q112 0 165 -80h2v137h-154v76h154v137h90v-137h52
v-76z" />
    <glyph glyph-name="Itilde" unicode="&#x128;" horiz-adv-x="278" 
d="M91 0v708h96v-708h-96zM19 816h-48q18 104 101 104q26 0 84 -23q46 -17 54 -17q35 0 49 44h48q-17 -104 -94 -104q-29 0 -81 21q-44 19 -66 19q-33 0 -47 -44z" />
    <glyph glyph-name="Itilde111" unicode="&#x129;" horiz-adv-x="240" 
d="M75 0v474h90v-474h-90zM0 576h-48q18 104 101 104q26 0 84 -23q46 -17 54 -17q35 0 49 44h48q-17 -104 -94 -104q-28 0 -81 21q-44 19 -66 19q-33 0 -47 -44z" />
    <glyph glyph-name="dotlessi" unicode="&#x131;" horiz-adv-x="240" 
d="M75 0v474h90v-474h-90z" />
    <glyph glyph-name="Lslash" unicode="&#x141;" horiz-adv-x="519" 
d="M91 0v209l-72 -63v89l72 62v411h96v-328l216 188v-89l-216 -187v-202h325v-90h-421z" />
    <glyph glyph-name="Lslash028" unicode="&#x142;" horiz-adv-x="240" 
d="M75 0v298l-78 -78v90l78 78v368h90v-278l78 77v-90l-78 -77v-388h-90z" />
    <glyph glyph-name="OE" unicode="&#x152;" horiz-adv-x="981" 
d="M923 90v-90h-456q-193 0 -302 100q-107 96 -107 254q0 163 109 257q109 97 300 97h444v-90h-294v-211h276v-90h-276v-227h306zM521 90v528h-61q-141 0 -223 -79q-77 -74 -77 -185q0 -117 77 -188q79 -76 223 -76h61z" />
    <glyph glyph-name="OE030" unicode="&#x153;" horiz-adv-x="926" 
d="M794 135l74 -49q-68 -98 -199 -98q-137 0 -194 92q-68 -92 -195 -92q-112 0 -178 72q-63 68 -63 177q0 107 68 178q69 71 178 71q122 0 192 -91q69 91 187 91q100 0 162 -66q61 -64 61 -172v-44h-359q0 -58 34 -95q37 -43 109 -43q79 0 123 69zM528 276h263q-1 55 -33 94
q-36 44 -96 44q-58 0 -99 -47q-35 -44 -35 -91zM403 355q-41 53 -115 53t-115 -50q-38 -47 -38 -121t37 -120q40 -51 108 -51q158 0 158 171q0 71 -35 118z" />
    <glyph glyph-name="Scaron" unicode="&#x160;" 
d="M33 80l79 68q49 -76 150 -76q54 0 94 30q47 35 47 88t-55 83q-18 10 -119 44q-82 27 -120 65q-55 52 -55 146q0 71 56 130q68 68 184 68q138 0 204 -81l-78 -71q-41 62 -126 62q-72 0 -109 -37q-29 -32 -29 -71q0 -60 55 -91q26 -16 120 -44q82 -25 119 -58
q55 -48 55 -134q0 -99 -72 -161q-67 -58 -174 -58q-155 0 -226 98zM225 748l-112 144h87l78 -96l74 96h91l-112 -144h-106z" />
    <glyph glyph-name="Scaron054" unicode="&#x161;" horiz-adv-x="444" 
d="M390 408l-70 -53q-38 47 -97 47q-32 0 -55 -14q-24 -14 -24 -39q0 -37 46 -55q15 -6 75 -19q67 -16 98 -43q40 -33 40 -95q0 -75 -61 -115q-52 -34 -131 -34q-121 0 -183 84l68 56q56 -56 115 -56q38 0 65 15q31 16 31 45q0 35 -42 53q-15 7 -72 20q-71 17 -101 41
q-44 32 -44 94q0 70 57 110q49 36 123 36q116 0 162 -78zM169 564l-112 144h87l78 -96l74 96h91l-112 -144h-106z" />
    <glyph glyph-name="Utilde" unicode="&#x168;" horiz-adv-x="704" 
d="M78 708h96v-434q0 -78 39 -134q48 -68 139 -68t139 68q39 56 39 134v434h96v-449q0 -122 -79 -200q-77 -77 -195 -77t-195 77q-79 78 -79 200v449zM232 816h-48q18 104 101 104q26 0 84 -23q46 -17 54 -17q35 0 49 44h48q-17 -104 -94 -104q-28 0 -81 21q-44 19 -66 19
q-33 0 -47 -44z" />
    <glyph glyph-name="Utilde063" unicode="&#x169;" 
d="M488 474v-474h-90v73h-2q-39 -85 -156 -85q-74 0 -120 43q-52 48 -52 138v305h90v-280q0 -122 108 -122q59 0 94 38q38 41 38 120v244h90zM158 576h-48q18 104 101 104q26 0 84 -23q46 -17 54 -17q35 0 49 44h48q-17 -104 -94 -104q-28 0 -81 21q-44 19 -66 19
q-33 0 -47 -44z" />
    <glyph glyph-name="Ydieresis" unicode="&#x178;" horiz-adv-x="612" 
d="M258 0v302l-268 406h123l193 -311l199 311h117l-268 -406v-302h-96zM247 882q19 -16 19 -41t-17 -45q-18 -18 -45 -18q-28 0 -44 18q-18 18 -18 45q0 25 19 41t43 16t43 -16zM451 882q19 -16 19 -41t-17 -45q-18 -18 -45 -18q-28 0 -44 18q-18 18 -18 45q0 25 19 41
t43 16t43 -16z" />
    <glyph glyph-name="Zcaron" unicode="&#x17d;" horiz-adv-x="593" 
d="M32 0v90l403 528h-391v90h511v-90l-401 -528h407v-90h-529zM244 748l-112 144h87l78 -96l74 96h91l-112 -144h-106z" />
    <glyph glyph-name="Zcaron061" unicode="&#x17e;" horiz-adv-x="463" 
d="M35 0v81l269 315h-260v78h370v-80l-271 -316h285v-78h-393zM179 564l-112 144h87l78 -96l74 96h91l-112 -144h-106z" />
    <glyph glyph-name="florin" unicode="&#x192;" 
d="M449 425v-72h-134l-73 -368q-10 -59 -54 -94t-103 -35q-48 0 -97 25l38 71q32 -12 54 -12q60 0 77 89l63 324h-108v72h122l27 141q14 68 55 112q42 42 98 42q74 0 117 -24l-40 -75q-22 15 -58 15q-69 0 -85 -100l-19 -111h120z" />
    <glyph glyph-name="Ohorn" unicode="&#x1a0;" horiz-adv-x="832" 
d="M610 155q73 79 73 199t-73 199q-75 83 -194 83t-194 -83q-73 -79 -73 -199t73 -199q75 -83 194 -83t194 83zM637 658q24 -16 45 -39q103 -106 103 -265t-103 -265q-105 -107 -266 -107t-265 107t-104 265t104 265t265 107q76 0 135 -22v2q36 0 60 24q25 25 25 61h75
q1 -73 -45 -113q-16 -14 -29 -20z" />
    <glyph glyph-name="Ohorn064" unicode="&#x1a1;" horiz-adv-x="594" 
d="M183 119q44 -47 114 -47t114 47q42 45 42 118t-42 119q-43 46 -114 46t-114 -46q-42 -46 -42 -119t42 -118zM469 420l7 -7q73 -72 73 -176t-73 -176q-73 -73 -179 -73t-179 73q-73 72 -73 176t73 176q73 73 179 73q52 0 93 -16v1q36 0 60 24q25 25 25 61h75
q1 -73 -45 -113q-19 -16 -36 -23z" />
    <glyph glyph-name="Uhorn" unicode="&#x1af;" horiz-adv-x="704" 
d="M626 650v-391q0 -122 -79 -200q-77 -77 -195 -77t-195 77q-79 78 -79 200v449h96v-434q0 -78 39 -134q48 -68 139 -68t139 68q39 56 39 134v434h49q23 4 40 22q25 25 25 61h75q1 -73 -45 -113q-19 -19 -48 -28z" />
    <glyph glyph-name="Uhorn065" unicode="&#x1b0;" 
d="M488 418v-418h-90v73h-2q-39 -85 -156 -85q-74 0 -120 43q-52 48 -52 138v305h90v-280q0 -122 108 -122q59 0 94 38q38 41 38 120v244h39q19 4 36 21q25 25 25 61h75q1 -73 -45 -113q-15 -15 -40 -25z" />
    <glyph glyph-name="circumflex" unicode="&#x2c6;" horiz-adv-x="240" 
d="M285 564h-91l-74 96l-74 -96h-91l112 144h106z" />
    <glyph glyph-name="caron" unicode="&#x2c7;" horiz-adv-x="240" 
d="M67 564l-112 144h87l78 -96l74 96h91l-112 -144h-106z" />
    <glyph glyph-name="uni02C9" unicode="&#x2c9;" horiz-adv-x="240" 
d="M264 666v-66h-288v66h288z" />
    <glyph glyph-name="breve" unicode="&#x2d8;" horiz-adv-x="240" 
d="M-37 702h55q14 -72 103 -72q90 0 103 72h53q-4 -67 -48 -103q-41 -35 -109 -35t-109 35q-44 36 -48 103z" />
    <glyph glyph-name="dotaccent" unicode="&#x2d9;" horiz-adv-x="240" 
d="M76 612q-18 18 -18 45q0 25 19 41t43 16t43 -16t19 -41t-17 -45q-18 -18 -45 -18q-28 0 -44 18z" />
    <glyph glyph-name="ring" unicode="&#x2da;" horiz-adv-x="240" 
d="M49 722q28 28 71 28q44 0 72 -28q32 -29 30 -70q1 -42 -30 -70q-32 -29 -72 -29q-43 0 -71 28q-31 28 -31 70q0 41 31 71zM162 692q-16 16 -42 16t-42 -16q-18 -16 -18 -41q0 -23 18 -40q16 -16 42 -16t42 16q18 17 18 40q0 25 -18 41z" />
    <glyph glyph-name="ogonek" unicode="&#x2db;" horiz-adv-x="240" 
d="M193 -142l22 -44q-41 -35 -91 -35q-43 0 -68 22q-30 23 -31 63q0 70 93 143h54q-75 -72 -75 -125q4 -43 49 -43q25 0 47 19z" />
    <glyph glyph-name="tilde" unicode="&#x2dc;" horiz-adv-x="240" 
d="M-48 576h-48q18 104 101 104q26 0 84 -23q46 -17 54 -17q35 0 49 44h48q-17 -104 -94 -104q-28 0 -81 21q-44 19 -66 19q-33 0 -47 -44z" />
    <glyph glyph-name="hungarumlaut" unicode="&#x2dd;" horiz-adv-x="240" 
d="M-50 564l104 144h127l-149 -144h-82zM119 564l104 144h127l-149 -144h-82z" />
    <glyph glyph-name="gravecomb" unicode="&#x300;" horiz-adv-x="0" 
d="M-214 708l104 -144h-83l-149 144h128z" />
    <glyph glyph-name="acutecomb" unicode="&#x301;" horiz-adv-x="0" 
d="M-327 564l104 144h128l-149 -144h-83z" />
    <glyph glyph-name="tildecomb" unicode="&#x303;" horiz-adv-x="0" 
d="M-323 576h-48q18 104 101 104q26 0 84 -23q46 -17 54 -17q35 0 49 44h48q-17 -104 -94 -104q-29 0 -81 21q-44 19 -66 19q-33 0 -47 -44z" />
    <glyph glyph-name="hookabovecomb" unicode="&#x309;" horiz-adv-x="500" 
d="M284 558h-55q2 35 8 46q9 12 19 20q23 23 23 33q0 8 -5 13q-6 6 -14 6q-10 0 -14 -6q-6 -6 -9 -29l-57 5q7 46 28 63q23 18 53 18q31 0 51 -18q22 -19 22 -51q0 -29 -16 -45l-21 -21q-11 -12 -13 -34z" />
    <glyph glyph-name="uni031B" unicode="&#x31b;" horiz-adv-x="500" 
d="M371 688h75q1 -73 -45 -113q-43 -39 -113 -39l-2 67q36 0 60 24q25 25 25 61z" />
    <glyph glyph-name="dotbelowcomb" unicode="&#x323;" horiz-adv-x="0" 
d="M-253 -116q19 19 46 19q28 0 47 -19t19 -47q0 -27 -19 -46q-20 -20 -47 -20q-26 0 -46 20t-20 46q0 27 20 47z" />
    <glyph glyph-name="_251" unicode="&#x3a9;" horiz-adv-x="716" 
d="M193 71v3q-133 121 -133 308q0 145 86 240q85 94 215 94q131 0 215 -101q78 -95 78 -228q0 -197 -134 -313v-3h148v-71h-245v53q144 95 144 317q-1 109 -53 186q-58 87 -154 87q-95 0 -154 -80q-58 -76 -58 -196q0 -106 45 -196q41 -81 99 -118v-53h-246v71h147z" />
    <glyph glyph-name="_231" unicode="&#x3bc;" 
d="M68 -228v702h90v-280q0 -122 108 -122q59 0 94 38q38 41 38 120v244h90v-474h-90v73h-2q-39 -85 -156 -85q-46 0 -82 18v-234h-90z" />
    <glyph glyph-name="pi" unicode="&#x3c0;" horiz-adv-x="577" 
d="M551 451h-78v-302q0 -88 14 -149h-84q-17 32 -17 142v309h-171q-13 -298 -72 -451h-84q63 190 70 451q-77 0 -108 -12l-13 58q44 29 148 29h403z" />
    <glyph glyph-name="A.dotbl" unicode="&#x1ea0;" horiz-adv-x="704" 
d="M1 0l312 708h87l303 -708h-112l-71 175h-337l-70 -175h-112zM217 259h268l-132 325h-2zM306 -116q19 19 46 19q28 0 47 -19t19 -47q0 -27 -19 -46q-20 -20 -47 -20q-26 0 -46 20t-20 46q0 27 20 47z" />
    <glyph glyph-name="A.dotbl066" unicode="&#x1ea1;" horiz-adv-x="519" 
d="M124 360l-54 56q73 70 188 70q100 0 152 -48q46 -43 46 -110v-242q0 -55 4 -86h-80q-3 36 -3 72h-2q-55 -84 -166 -84q-69 0 -115 37q-49 39 -49 105q0 164 261 164h66v20q0 40 -28 68q-32 32 -85 32q-65 0 -135 -54zM372 228h-48q-189 0 -189 -91q0 -77 102 -77
q69 0 105 45q30 37 30 93v30zM207 -116q19 19 46 19q28 0 47 -19t19 -47q0 -27 -19 -46q-20 -20 -47 -20q-26 0 -46 20t-20 46q0 27 20 47z" />
    <glyph glyph-name="A.hook" unicode="&#x1ea2;" horiz-adv-x="704" 
d="M1 0l312 708h87l303 -708h-112l-71 175h-337l-70 -175h-112zM217 259h268l-132 325h-2zM378 798h-55q2 35 8 46q9 12 19 20q23 23 23 33q0 8 -5 13q-6 6 -14 6q-10 0 -14 -6q-6 -6 -9 -29l-57 5q7 46 28 63q22 18 53 18t51 -18q22 -19 22 -51q0 -29 -16 -45l-21 -21
q-11 -12 -13 -34z" />
    <glyph glyph-name="A.hook067" unicode="&#x1ea3;" horiz-adv-x="519" 
d="M124 360l-54 56q73 70 188 70q100 0 152 -48q46 -43 46 -110v-242q0 -55 4 -86h-80q-3 36 -3 72h-2q-55 -84 -166 -84q-69 0 -115 37q-49 39 -49 105q0 164 261 164h66v20q0 40 -28 68q-32 32 -85 32q-65 0 -135 -54zM372 228h-48q-189 0 -189 -91q0 -77 102 -77
q69 0 105 45q30 37 30 93v30zM279 558h-55q2 35 8 46q9 12 19 20q23 23 23 33q0 8 -5 13q-6 6 -14 6q-9 0 -14 -6q-6 -6 -9 -29l-57 5q7 46 28 63q23 18 53 18q32 0 51 -18q22 -19 22 -51q0 -29 -16 -45l-21 -21q-12 -12 -13 -34z" />
    <glyph glyph-name="Acir.acute" unicode="&#x1ea4;" horiz-adv-x="704" 
d="M1 0l312 708h87l303 -708h-112l-71 175h-337l-70 -175h-112zM217 259h268l-132 325h-2zM517 747h-91l-74 96l-74 -96h-91l112 144h106zM465 863l104 144h128l-149 -144h-83z" />
    <glyph glyph-name="Acir.acute068" unicode="&#x1ea5;" horiz-adv-x="519" 
d="M124 360l-54 56q73 70 188 70q100 0 152 -48q46 -43 46 -110v-242q0 -55 4 -86h-80q-3 36 -3 72h-2q-55 -84 -166 -84q-69 0 -115 37q-49 39 -49 105q0 164 261 164h66v20q0 40 -28 68q-32 32 -85 32q-65 0 -135 -54zM372 228h-48q-189 0 -189 -91q0 -77 102 -77
q69 0 105 45q30 37 30 93v30zM418 564h-91l-74 96l-74 -96h-91l112 144h106zM364 687l104 144h128l-149 -144h-83z" />
    <glyph glyph-name="Acir.grave" unicode="&#x1ea6;" horiz-adv-x="704" 
d="M1 0l312 708h87l303 -708h-112l-71 175h-337l-70 -175h-112zM217 259h268l-132 325h-2zM518 748h-91l-74 96l-74 -96h-91l112 144h106zM144 1006l104 -144h-83l-149 144h128z" />
    <glyph glyph-name="Acir.grave069" unicode="&#x1ea7;" horiz-adv-x="519" 
d="M124 360l-54 56q73 70 188 70q100 0 152 -48q46 -43 46 -110v-242q0 -55 4 -86h-80q-3 36 -3 72h-2q-55 -84 -166 -84q-69 0 -115 37q-49 39 -49 105q0 164 261 164h66v20q0 40 -28 68q-32 32 -85 32q-65 0 -135 -54zM372 228h-48q-189 0 -189 -91q0 -77 102 -77
q69 0 105 45q30 37 30 93v30zM418 564h-91l-74 96l-74 -96h-91l112 144h106zM39 824l104 -144h-83l-149 144h128z" />
    <glyph glyph-name="Acir.hook" unicode="&#x1ea8;" horiz-adv-x="704" 
d="M1 0l312 708h87l303 -708h-112l-71 175h-337l-70 -175h-112zM217 259h268l-132 325h-2zM516 748h-91l-74 96l-74 -96h-91l112 144h106zM534 891h-55q2 35 8 46q9 12 19 20q23 23 23 33q0 8 -5 13q-6 6 -14 6q-9 0 -14 -6q-6 -6 -9 -29l-57 5q7 46 28 63q23 18 53 18
q31 0 51 -18q22 -19 22 -51q0 -29 -16 -45l-21 -21q-11 -11 -13 -34z" />
    <glyph glyph-name="Acir.hook070" unicode="&#x1ea9;" horiz-adv-x="519" 
d="M124 360l-54 56q73 70 188 70q100 0 152 -48q46 -43 46 -110v-242q0 -55 4 -86h-80q-3 36 -3 72h-2q-55 -84 -166 -84q-69 0 -115 37q-49 39 -49 105q0 164 261 164h66v20q0 40 -28 68q-32 32 -85 32q-65 0 -135 -54zM372 228h-48q-189 0 -189 -91q0 -77 102 -77
q69 0 105 45q30 37 30 93v30zM418 564h-91l-74 96l-74 -96h-91l112 144h106zM433 683h-55q2 35 8 46q9 12 19 20q23 23 23 33q0 8 -5 13q-6 6 -14 6q-9 0 -14 -6q-6 -6 -9 -29l-57 5q7 46 28 63q22 18 53 18q32 0 51 -18q22 -19 22 -51q0 -29 -16 -45l-21 -21
q-12 -11 -13 -34z" />
    <glyph glyph-name="Acir.tilde" unicode="&#x1eaa;" horiz-adv-x="704" 
d="M1 0l312 708h87l303 -708h-112l-71 175h-337l-70 -175h-112zM217 259h268l-132 325h-2zM517 747h-91l-74 96l-74 -96h-91l112 144h106zM262 910h-48q18 104 101 104q26 0 84 -23q46 -17 54 -17q35 0 49 44h48q-17 -104 -94 -104q-28 0 -81 21q-44 19 -66 19
q-33 0 -47 -44z" />
    <glyph glyph-name="Acir.tilde071" unicode="&#x1eab;" horiz-adv-x="519" 
d="M124 360l-54 56q73 70 188 70q100 0 152 -48q46 -43 46 -110v-242q0 -55 4 -86h-80q-3 36 -3 72h-2q-55 -84 -166 -84q-69 0 -115 37q-49 39 -49 105q0 164 261 164h66v20q0 40 -28 68q-32 32 -85 32q-65 0 -135 -54zM372 228h-48q-189 0 -189 -91q0 -77 102 -77
q69 0 105 45q30 37 30 93v30zM418 564h-91l-74 96l-74 -96h-91l112 144h106zM133 735h-48q18 104 101 104q26 0 84 -23q46 -17 54 -17q35 0 49 44h48q-17 -104 -94 -104q-29 0 -81 21q-44 19 -66 19q-33 0 -47 -44z" />
    <glyph glyph-name="Acir.dotbl" unicode="&#x1eac;" horiz-adv-x="704" 
d="M1 0l312 708h87l303 -708h-112l-71 175h-337l-70 -175h-112zM217 259h268l-132 325h-2zM517 804h-91l-74 96l-74 -96h-91l112 144h106zM306 -116q19 19 46 19q28 0 47 -19t19 -47q0 -27 -19 -46q-20 -20 -47 -20q-26 0 -46 20t-20 46q0 27 20 47z" />
    <glyph glyph-name="Acir.dotbl072" unicode="&#x1ead;" horiz-adv-x="519" 
d="M124 360l-54 56q73 70 188 70q100 0 152 -48q46 -43 46 -110v-242q0 -55 4 -86h-80q-3 36 -3 72h-2q-55 -84 -166 -84q-69 0 -115 37q-49 39 -49 105q0 164 261 164h66v20q0 40 -28 68q-32 32 -85 32q-65 0 -135 -54zM372 228h-48q-189 0 -189 -91q0 -77 102 -77
q69 0 105 45q30 37 30 93v30zM418 564h-91l-74 96l-74 -96h-91l112 144h106zM207 -116q19 19 46 19q28 0 47 -19t19 -47q0 -27 -19 -46q-20 -20 -47 -20q-26 0 -46 20t-20 46q0 27 20 47z" />
    <glyph glyph-name="Abrv.acute" unicode="&#x1eae;" horiz-adv-x="704" 
d="M1 0l312 708h87l303 -708h-112l-71 175h-337l-70 -175h-112zM217 259h268l-132 325h-2zM191 886h55q14 -72 103 -72t103 72h53q-4 -67 -48 -103q-41 -35 -109 -35t-109 35q-44 36 -48 103zM312 888l104 144h128l-149 -144h-83z" />
    <glyph glyph-name="Abrv.acute073" unicode="&#x1eaf;" horiz-adv-x="519" 
d="M124 360l-54 56q73 70 188 70q100 0 152 -48q46 -43 46 -110v-242q0 -55 4 -86h-80q-3 36 -3 72h-2q-55 -84 -166 -84q-69 0 -115 37q-49 39 -49 105q0 164 261 164h66v20q0 40 -28 68q-32 32 -85 32q-65 0 -135 -54zM372 228h-48q-189 0 -189 -91q0 -77 102 -77
q69 0 105 45q30 37 30 93v30zM96 702h55q13 -72 103 -72t103 72h53q-4 -67 -48 -103q-41 -35 -109 -35t-109 35q-44 36 -48 103zM176 738l104 144h128l-149 -144h-83z" />
    <glyph glyph-name="Abrv.grave" unicode="&#x1eb0;" horiz-adv-x="704" 
d="M1 0l312 708h87l303 -708h-112l-71 175h-337l-70 -175h-112zM217 259h268l-132 325h-2zM200 886h55q13 -72 103 -72t103 72h53q-4 -67 -48 -103q-41 -35 -109 -35t-109 35q-44 36 -48 103zM294 1034l104 -144h-83l-149 144h128z" />
    <glyph glyph-name="Abrv.grave074" unicode="&#x1eb1;" horiz-adv-x="519" 
d="M124 360l-54 56q73 70 188 70q100 0 152 -48q46 -43 46 -110v-242q0 -55 4 -86h-80q-3 36 -3 72h-2q-55 -84 -166 -84q-69 0 -115 37q-49 39 -49 105q0 164 261 164h66v20q0 40 -28 68q-32 32 -85 32q-65 0 -135 -54zM372 228h-48q-189 0 -189 -91q0 -77 102 -77
q69 0 105 45q30 37 30 93v30zM96 702h55q13 -72 103 -72t103 72h53q-4 -67 -48 -103q-41 -35 -109 -35t-109 35q-44 36 -48 103zM225 882l104 -144h-83l-149 144h128z" />
    <glyph glyph-name="Abrv.hook" unicode="&#x1eb2;" horiz-adv-x="704" 
d="M1 0l312 708h87l303 -708h-112l-71 175h-337l-70 -175h-112zM217 259h268l-132 325h-2zM203 886h55q14 -72 103 -72t103 72h53q-4 -67 -48 -103q-41 -35 -109 -35t-109 35q-44 36 -48 103zM390 907h-55q2 26 8 34q7 7 19 15q23 17 23 25q0 5 -5 10q-4 4 -14 4t-14 -4
q-6 -5 -9 -22l-57 4q7 33 28 47q22 13 53 13q32 0 51 -13q22 -13 22 -38q0 -21 -16 -34l-21 -16q-12 -9 -13 -25z" />
    <glyph glyph-name="Abrv.hook075" unicode="&#x1eb3;" horiz-adv-x="519" 
d="M124 360l-54 56q73 70 188 70q100 0 152 -48q46 -43 46 -110v-242q0 -55 4 -86h-80q-3 36 -3 72h-2q-55 -84 -166 -84q-69 0 -115 37q-49 39 -49 105q0 164 261 164h66v20q0 40 -28 68q-32 32 -85 32q-65 0 -135 -54zM372 228h-48q-189 0 -189 -91q0 -77 102 -77
q69 0 105 45q30 37 30 93v30zM96 702h55q13 -72 103 -72t103 72h53q-4 -67 -48 -103q-41 -35 -109 -35t-109 35q-44 36 -48 103zM290 705h-55q2 35 8 46q9 12 19 20q23 23 23 33q0 8 -5 13q-6 6 -14 6q-10 0 -14 -6q-6 -6 -9 -29l-57 5q7 46 28 63q23 18 53 18q31 0 51 -18
q22 -19 22 -51q0 -29 -16 -45l-21 -21q-11 -11 -13 -34z" />
    <glyph glyph-name="Abrv.tilde" unicode="&#x1eb4;" horiz-adv-x="704" 
d="M1 0l312 708h87l303 -708h-112l-71 175h-337l-70 -175h-112zM217 259h268l-132 325h-2zM195 885h55q14 -72 103 -72t103 72h53q-4 -67 -48 -103q-41 -35 -109 -35t-109 35q-44 36 -48 103zM237 912h-48q18 104 101 104q26 0 84 -23q46 -17 54 -17q35 0 49 44h48
q-17 -104 -94 -104q-29 0 -81 21q-44 19 -66 19q-33 0 -47 -44z" />
    <glyph glyph-name="Abrv.tilde076" unicode="&#x1eb5;" horiz-adv-x="519" 
d="M124 360l-54 56q73 70 188 70q100 0 152 -48q46 -43 46 -110v-242q0 -55 4 -86h-80q-3 36 -3 72h-2q-55 -84 -166 -84q-69 0 -115 37q-49 39 -49 105q0 164 261 164h66v20q0 40 -28 68q-32 32 -85 32q-65 0 -135 -54zM372 228h-48q-189 0 -189 -91q0 -77 102 -77
q69 0 105 45q30 37 30 93v30zM96 702h55q13 -72 103 -72t103 72h53q-4 -67 -48 -103q-41 -35 -109 -35t-109 35q-44 36 -48 103zM133 729h-48q18 104 101 104q26 0 84 -23q46 -17 54 -17q35 0 49 44h48q-17 -104 -94 -104q-29 0 -81 21q-44 19 -66 19q-33 0 -47 -44z" />
    <glyph glyph-name="Abrv.dotbl" unicode="&#x1eb6;" horiz-adv-x="704" 
d="M1 0l312 708h87l303 -708h-112l-71 175h-337l-70 -175h-112zM217 259h268l-132 325h-2zM195 886h55q14 -72 103 -72t103 72h53q-4 -67 -48 -103q-41 -35 -109 -35t-109 35q-44 36 -48 103zM306 -116q19 19 46 19q28 0 47 -19t19 -47q0 -27 -19 -46q-20 -20 -47 -20
q-26 0 -46 20t-20 46q0 27 20 47z" />
    <glyph glyph-name="Abrv.dotbl077" unicode="&#x1eb7;" horiz-adv-x="519" 
d="M124 360l-54 56q73 70 188 70q100 0 152 -48q46 -43 46 -110v-242q0 -55 4 -86h-80q-3 36 -3 72h-2q-55 -84 -166 -84q-69 0 -115 37q-49 39 -49 105q0 164 261 164h66v20q0 40 -28 68q-32 32 -85 32q-65 0 -135 -54zM372 228h-48q-189 0 -189 -91q0 -77 102 -77
q69 0 105 45q30 37 30 93v30zM96 702h55q13 -72 103 -72t103 72h53q-4 -67 -48 -103q-41 -35 -109 -35t-109 35q-44 36 -48 103zM207 -116q19 19 46 19q28 0 47 -19t19 -47q0 -27 -19 -46q-20 -20 -47 -20q-26 0 -46 20t-20 46q0 27 20 47z" />
    <glyph glyph-name="E.dotbl" unicode="&#x1eb8;" horiz-adv-x="611" 
d="M91 0v708h457v-90h-361v-211h336v-90h-336v-227h379v-90h-475zM283 -116q19 19 46 19q28 0 47 -19t19 -47q0 -27 -19 -46q-20 -20 -47 -20q-26 0 -46 20t-20 46q0 27 20 47z" />
    <glyph glyph-name="E.dotbl078" unicode="&#x1eb9;" 
d="M516 204h-380q0 -60 49 -100q47 -38 111 -38q71 0 130 71l68 -52q-75 -97 -210 -97q-110 0 -178 72q-66 69 -66 177q0 107 69 178q71 71 176 71q117 0 178 -79q53 -68 53 -171v-32zM136 276h284q-2 63 -35 99q-36 39 -102 39q-63 0 -107 -45q-40 -40 -40 -93zM232 -116
q19 19 46 19q28 0 47 -19t19 -47q0 -27 -19 -46q-20 -20 -47 -20q-26 0 -46 20t-20 46q0 27 20 47z" />
    <glyph glyph-name="E.hook" unicode="&#x1eba;" horiz-adv-x="611" 
d="M91 0v708h457v-90h-361v-211h336v-90h-336v-227h379v-90h-475zM355 798h-55q2 35 8 46q9 12 19 20q23 23 23 33q0 8 -5 13q-6 6 -14 6q-9 0 -14 -6q-6 -6 -9 -29l-57 5q7 46 28 63q23 18 53 18q32 0 51 -18q22 -19 22 -51q0 -29 -16 -45l-21 -21q-12 -12 -13 -34z" />
    <glyph glyph-name="E.hook079" unicode="&#x1ebb;" 
d="M516 204h-380q0 -60 49 -100q47 -38 111 -38q71 0 130 71l68 -52q-75 -97 -210 -97q-110 0 -178 72q-66 69 -66 177q0 107 69 178q71 71 176 71q117 0 178 -79q53 -68 53 -171v-32zM136 276h284q-2 63 -35 99q-36 39 -102 39q-63 0 -107 -45q-40 -40 -40 -93zM304 558
h-55q2 35 8 46q9 12 19 20q23 23 23 33q0 8 -5 13q-6 6 -14 6q-10 0 -14 -6q-6 -6 -9 -29l-57 5q7 46 28 63q23 18 53 18q31 0 51 -18q22 -19 22 -51q0 -29 -16 -45l-21 -21q-11 -12 -13 -34z" />
    <glyph glyph-name="E.tilde" unicode="&#x1ebc;" horiz-adv-x="611" 
d="M91 0v708h457v-90h-361v-211h336v-90h-336v-227h379v-90h-475zM209 816h-48q18 104 101 104q26 0 84 -23q46 -17 54 -17q35 0 49 44h48q-17 -104 -94 -104q-29 0 -81 21q-44 19 -66 19q-33 0 -47 -44z" />
    <glyph glyph-name="E.tilde080" unicode="&#x1ebd;" 
d="M516 204h-380q0 -60 49 -100q47 -38 111 -38q71 0 130 71l68 -52q-75 -97 -210 -97q-110 0 -178 72q-66 69 -66 177q0 107 69 178q71 71 176 71q117 0 178 -79q53 -68 53 -171v-32zM136 276h284q-2 63 -35 99q-36 39 -102 39q-63 0 -107 -45q-40 -40 -40 -93zM158 576
h-48q18 104 101 104q26 0 84 -23q46 -17 54 -17q35 0 49 44h48q-17 -104 -94 -104q-28 0 -81 21q-44 19 -66 19q-33 0 -47 -44z" />
    <glyph glyph-name="Ecir.acute" unicode="&#x1ebe;" horiz-adv-x="611" 
d="M91 0v708h457v-90h-361v-211h336v-90h-336v-227h379v-90h-475zM493 747h-91l-74 96l-74 -96h-91l112 144h106zM441 863l104 144h128l-149 -144h-83z" />
    <glyph glyph-name="Ecir.acute081" unicode="&#x1ebf;" 
d="M516 204h-380q0 -60 49 -100q47 -38 111 -38q71 0 130 71l68 -52q-75 -97 -210 -97q-110 0 -178 72q-66 69 -66 177q0 107 69 178q71 71 176 71q117 0 178 -79q53 -68 53 -171v-32zM136 276h284q-2 63 -35 99q-36 39 -102 39q-63 0 -107 -45q-40 -40 -40 -93zM443 564
h-91l-74 96l-74 -96h-91l112 144h106zM397 636l104 144h128l-149 -144h-83z" />
    <glyph glyph-name="Ecir.grave" unicode="&#x1ec0;" horiz-adv-x="611" 
d="M91 0v708h457v-90h-361v-211h336v-90h-336v-227h379v-90h-475zM494 748h-91l-74 96l-74 -96h-91l112 144h106zM120 1006l104 -144h-83l-149 144h128z" />
    <glyph glyph-name="Ecir.grave082" unicode="&#x1ec1;" 
d="M516 204h-380q0 -60 49 -100q47 -38 111 -38q71 0 130 71l68 -52q-75 -97 -210 -97q-110 0 -178 72q-66 69 -66 177q0 107 69 178q71 71 176 71q117 0 178 -79q53 -68 53 -171v-32zM136 276h284q-2 63 -35 99q-36 39 -102 39q-63 0 -107 -45q-40 -40 -40 -93zM443 564
h-91l-74 96l-74 -96h-91l112 144h106zM66 827l104 -144h-83l-149 144h128z" />
    <glyph glyph-name="Ecir.hook" unicode="&#x1ec2;" horiz-adv-x="611" 
d="M91 0v708h457v-90h-361v-211h336v-90h-336v-227h379v-90h-475zM482 747h-91l-74 96l-74 -96h-91l112 144h106zM500 890h-55q2 35 8 46q9 12 19 20q23 23 23 33q0 8 -5 13q-6 6 -14 6q-10 0 -14 -6q-6 -6 -9 -29l-57 5q7 46 28 63q22 18 53 18t51 -18q22 -19 22 -51
q0 -29 -16 -45l-21 -21q-11 -12 -13 -34z" />
    <glyph glyph-name="Ecir.hook083" unicode="&#x1ec3;" 
d="M516 204h-380q0 -60 49 -100q47 -38 111 -38q71 0 130 71l68 -52q-75 -97 -210 -97q-110 0 -178 72q-66 69 -66 177q0 107 69 178q71 71 176 71q117 0 178 -79q53 -68 53 -171v-32zM136 276h284q-2 63 -35 99q-36 39 -102 39q-63 0 -107 -45q-40 -40 -40 -93zM443 564
h-91l-74 96l-74 -96h-91l112 144h106zM455 685h-55q2 35 8 46q9 12 19 20q23 23 23 33q0 8 -5 13q-6 6 -14 6q-9 0 -14 -6q-6 -6 -9 -29l-57 5q7 46 28 63q23 18 53 18q32 0 51 -18q22 -19 22 -51q0 -29 -16 -45l-21 -21q-12 -11 -13 -34z" />
    <glyph glyph-name="Ecir.tilde" unicode="&#x1ec4;" horiz-adv-x="611" 
d="M91 0v708h457v-90h-361v-211h336v-90h-336v-227h379v-90h-475zM494 747h-91l-74 96l-74 -96h-91l112 144h106zM239 910h-48q18 104 101 104q26 0 84 -23q46 -17 54 -17q35 0 49 44h48q-17 -104 -94 -104q-29 0 -81 21q-44 19 -66 19q-33 0 -47 -44z" />
    <glyph glyph-name="Ecir.tilde084" unicode="&#x1ec5;" 
d="M516 204h-380q0 -60 49 -100q47 -38 111 -38q71 0 130 71l68 -52q-75 -97 -210 -97q-110 0 -178 72q-66 69 -66 177q0 107 69 178q71 71 176 71q117 0 178 -79q53 -68 53 -171v-32zM136 276h284q-2 63 -35 99q-36 39 -102 39q-63 0 -107 -45q-40 -40 -40 -93zM443 564
h-91l-74 96l-74 -96h-91l112 144h106zM158 735h-48q18 104 101 104q26 0 84 -23q46 -17 54 -17q35 0 49 44h48q-17 -104 -94 -104q-28 0 -81 21q-44 19 -66 19q-33 0 -47 -44z" />
    <glyph glyph-name="Ecir.dotbl" unicode="&#x1ec6;" horiz-adv-x="611" 
d="M91 0v708h457v-90h-361v-211h336v-90h-336v-227h379v-90h-475zM494 804h-91l-74 96l-74 -96h-91l112 144h106zM283 -116q19 19 46 19q28 0 47 -19t19 -47q0 -27 -19 -46q-20 -20 -47 -20q-26 0 -46 20t-20 46q0 27 20 47z" />
    <glyph glyph-name="Ecir.dotbl085" unicode="&#x1ec7;" 
d="M516 204h-380q0 -60 49 -100q47 -38 111 -38q71 0 130 71l68 -52q-75 -97 -210 -97q-110 0 -178 72q-66 69 -66 177q0 107 69 178q71 71 176 71q117 0 178 -79q53 -68 53 -171v-32zM136 276h284q-2 63 -35 99q-36 39 -102 39q-63 0 -107 -45q-40 -40 -40 -93zM443 564
h-91l-74 96l-74 -96h-91l112 144h106zM232 -116q19 19 46 19q28 0 47 -19t19 -47q0 -27 -19 -46q-20 -20 -47 -20q-26 0 -46 20t-20 46q0 27 20 47z" />
    <glyph glyph-name="I.hook" unicode="&#x1ec8;" horiz-adv-x="278" 
d="M91 0v708h96v-708h-96zM165 798h-55q2 35 8 46q9 12 19 20q23 23 23 33q0 8 -5 13q-6 6 -14 6q-9 0 -14 -6q-6 -6 -9 -29l-57 5q7 46 28 63q23 18 53 18q32 0 51 -18q22 -19 22 -51q0 -29 -16 -45l-21 -21q-12 -12 -13 -34z" />
    <glyph glyph-name="I.hook086" unicode="&#x1ec9;" horiz-adv-x="240" 
d="M75 0v474h90v-474h-90zM146 558h-55q2 35 8 46q9 12 19 20q23 23 23 33q0 8 -5 13q-6 6 -14 6q-10 0 -14 -6q-6 -6 -9 -29l-57 5q7 46 28 63q22 18 53 18t51 -18q22 -19 22 -51q0 -29 -16 -45l-21 -21q-11 -12 -13 -34z" />
    <glyph glyph-name="I.dotbl" unicode="&#x1eca;" horiz-adv-x="278" 
d="M91 0v708h96v-708h-96zM93 -116q19 19 46 19q28 0 47 -19t19 -47q0 -27 -19 -46q-20 -20 -47 -20q-26 0 -46 20t-20 46q0 27 20 47z" />
    <glyph glyph-name="I.dotbl087" unicode="&#x1ecb;" horiz-adv-x="240" 
d="M75 0v474h90v-474h-90zM74 691q19 19 46 19q28 0 47 -19t19 -47q0 -27 -19 -46q-20 -20 -47 -20q-26 0 -46 20t-20 46q0 27 20 47zM74 -116q19 19 46 19q28 0 47 -19t19 -47q0 -27 -19 -46q-20 -20 -47 -20q-26 0 -46 20t-20 46q0 27 20 47z" />
    <glyph glyph-name="O.dotbl" unicode="&#x1ecc;" horiz-adv-x="832" 
d="M151 89q-104 107 -104 265t104 265t265 107t266 -107q103 -106 103 -265t-103 -265q-105 -107 -266 -107t-265 107zM610 155q73 79 73 199t-73 199q-75 83 -194 83t-194 -83q-73 -79 -73 -199t73 -199q75 -83 194 -83t194 83zM370 -116q19 19 46 19q28 0 47 -19t19 -47
q0 -27 -19 -46q-20 -20 -47 -20q-26 0 -46 20t-20 46q0 27 20 47z" />
    <glyph glyph-name="O.dotbl088" unicode="&#x1ecd;" horiz-adv-x="594" 
d="M183 119q44 -47 114 -47t114 47q42 45 42 118t-42 119q-43 46 -114 46t-114 -46q-42 -46 -42 -119t42 -118zM118 413q73 73 179 73t179 -73q73 -72 73 -176t-73 -176q-73 -73 -179 -73t-179 73q-73 72 -73 176t73 176zM251 -116q19 19 46 19q28 0 47 -19t19 -47
q0 -27 -19 -46q-20 -20 -47 -20q-26 0 -46 20t-20 46q0 27 20 47z" />
    <glyph glyph-name="O.hook" unicode="&#x1ece;" horiz-adv-x="832" 
d="M151 89q-104 107 -104 265t104 265t265 107t266 -107q103 -106 103 -265t-103 -265q-105 -107 -266 -107t-265 107zM610 155q73 79 73 199t-73 199q-75 83 -194 83t-194 -83q-73 -79 -73 -199t73 -199q75 -83 194 -83t194 83zM442 798h-55q2 35 8 46q9 12 19 20
q23 23 23 33q0 8 -5 13q-6 6 -14 6q-10 0 -14 -6q-6 -6 -9 -29l-57 5q7 46 28 63q23 18 53 18q31 0 51 -18q22 -19 22 -51q0 -29 -16 -45l-21 -21q-11 -12 -13 -34z" />
    <glyph glyph-name="O.hook089" unicode="&#x1ecf;" horiz-adv-x="594" 
d="M183 119q44 -47 114 -47t114 47q42 45 42 118t-42 119q-43 46 -114 46t-114 -46q-42 -46 -42 -119t42 -118zM118 413q73 73 179 73t179 -73q73 -72 73 -176t-73 -176q-73 -73 -179 -73t-179 73q-73 72 -73 176t73 176zM323 558h-55q2 35 8 46q9 12 19 20q23 23 23 33
q0 8 -5 13q-6 6 -14 6q-9 0 -14 -6q-6 -6 -9 -29l-57 5q7 46 28 63q23 18 53 18q32 0 51 -18q22 -19 22 -51q0 -29 -16 -45l-21 -21q-12 -12 -13 -34z" />
    <glyph glyph-name="Ocir.acute" unicode="&#x1ed0;" horiz-adv-x="832" 
d="M151 89q-104 107 -104 265t104 265t265 107t266 -107q103 -106 103 -265t-103 -265q-105 -107 -266 -107t-265 107zM610 155q73 79 73 199t-73 199q-75 83 -194 83t-194 -83q-73 -79 -73 -199t73 -199q75 -83 194 -83t194 83zM581 747h-91l-74 96l-74 -96h-91l112 144
h106zM529 863l104 144h128l-149 -144h-83z" />
    <glyph glyph-name="Ocir.acute090" unicode="&#x1ed1;" horiz-adv-x="594" 
d="M183 119q44 -47 114 -47t114 47q42 45 42 118t-42 119q-43 46 -114 46t-114 -46q-42 -46 -42 -119t42 -118zM118 413q73 73 179 73t179 -73q73 -72 73 -176t-73 -176q-73 -73 -179 -73t-179 73q-73 72 -73 176t73 176zM462 564h-91l-74 96l-74 -96h-91l112 144h106z
M423 636l104 144h128l-149 -144h-83z" />
    <glyph glyph-name="Ocir.grave" unicode="&#x1ed2;" horiz-adv-x="832" 
d="M151 89q-104 107 -104 265t104 265t265 107t266 -107q103 -106 103 -265t-103 -265q-105 -107 -266 -107t-265 107zM610 155q73 79 73 199t-73 199q-75 83 -194 83t-194 -83q-73 -79 -73 -199t73 -199q75 -83 194 -83t194 83zM582 748h-91l-74 96l-74 -96h-91l112 144
h106zM208 1006l104 -144h-83l-149 144h128z" />
    <glyph glyph-name="Ocir.grave091" unicode="&#x1ed3;" horiz-adv-x="594" 
d="M183 119q44 -47 114 -47t114 47q42 45 42 118t-42 119q-43 46 -114 46t-114 -46q-42 -46 -42 -119t42 -118zM118 413q73 73 179 73t179 -73q73 -72 73 -176t-73 -176q-73 -73 -179 -73t-179 73q-73 72 -73 176t73 176zM462 564h-91l-74 96l-74 -96h-91l112 144h106z
M83 831l104 -144h-83l-149 144h128z" />
    <glyph glyph-name="Ocir.hook" unicode="&#x1ed4;" horiz-adv-x="832" 
d="M151 89q-104 107 -104 265t104 265t265 107t266 -107q103 -106 103 -265t-103 -265q-105 -107 -266 -107t-265 107zM610 155q73 79 73 199t-73 199q-75 83 -194 83t-194 -83q-73 -79 -73 -199t73 -199q75 -83 194 -83t194 83zM582 747h-91l-74 96l-74 -96h-91l112 144
h106zM600 890h-55q2 35 8 46q9 12 19 20q23 23 23 33q0 8 -5 13q-6 6 -14 6q-10 0 -14 -6q-6 -6 -9 -29l-57 5q7 46 28 63q22 18 53 18t51 -18q22 -19 22 -51q0 -29 -16 -45l-21 -21q-11 -12 -13 -34z" />
    <glyph glyph-name="Ocir.hook092" unicode="&#x1ed5;" horiz-adv-x="594" 
d="M183 119q44 -47 114 -47t114 47q42 45 42 118t-42 119q-43 46 -114 46t-114 -46q-42 -46 -42 -119t42 -118zM118 413q73 73 179 73t179 -73q73 -72 73 -176t-73 -176q-73 -73 -179 -73t-179 73q-73 72 -73 176t73 176zM462 564h-91l-74 96l-74 -96h-91l112 144h106z
M468 699h-55q2 35 8 46q9 12 19 20q23 23 23 33q0 8 -5 13q-6 6 -14 6q-9 0 -14 -6q-6 -6 -9 -29l-57 5q7 46 28 63q22 18 53 18t51 -18q22 -19 22 -51q0 -29 -16 -45l-21 -21q-11 -11 -13 -34z" />
    <glyph glyph-name="Ocir.tilde" unicode="&#x1ed6;" horiz-adv-x="832" 
d="M151 89q-104 107 -104 265t104 265t265 107t266 -107q103 -106 103 -265t-103 -265q-105 -107 -266 -107t-265 107zM610 155q73 79 73 199t-73 199q-75 83 -194 83t-194 -83q-73 -79 -73 -199t73 -199q75 -83 194 -83t194 83zM581 747h-91l-74 96l-74 -96h-91l112 144
h106zM326 910h-48q18 104 101 104q26 0 84 -23q46 -17 54 -17q35 0 49 44h48q-17 -104 -94 -104q-28 0 -81 21q-44 19 -66 19q-33 0 -47 -44z" />
    <glyph glyph-name="Ocir.tilde093" unicode="&#x1ed7;" horiz-adv-x="594" 
d="M183 119q44 -47 114 -47t114 47q42 45 42 118t-42 119q-43 46 -114 46t-114 -46q-42 -46 -42 -119t42 -118zM118 413q73 73 179 73t179 -73q73 -72 73 -176t-73 -176q-73 -73 -179 -73t-179 73q-73 72 -73 176t73 176zM462 564h-91l-74 96l-74 -96h-91l112 144h106z
M177 735h-48q18 104 101 104q26 0 84 -23q46 -17 54 -17q35 0 49 44h48q-17 -104 -94 -104q-29 0 -81 21q-44 19 -66 19q-33 0 -47 -44z" />
    <glyph glyph-name="Ocir.dotbl" unicode="&#x1ed8;" horiz-adv-x="832" 
d="M151 89q-104 107 -104 265t104 265t265 107t266 -107q103 -106 103 -265t-103 -265q-105 -107 -266 -107t-265 107zM610 155q73 79 73 199t-73 199q-75 83 -194 83t-194 -83q-73 -79 -73 -199t73 -199q75 -83 194 -83t194 83zM581 748h-91l-74 96l-74 -96h-91l112 144
h106zM370 -116q19 19 46 19q28 0 47 -19t19 -47q0 -27 -19 -46q-20 -20 -47 -20q-26 0 -46 20t-20 46q0 27 20 47z" />
    <glyph glyph-name="Ocir.dotbl094" unicode="&#x1ed9;" horiz-adv-x="594" 
d="M183 119q44 -47 114 -47t114 47q42 45 42 118t-42 119q-43 46 -114 46t-114 -46q-42 -46 -42 -119t42 -118zM118 413q73 73 179 73t179 -73q73 -72 73 -176t-73 -176q-73 -73 -179 -73t-179 73q-73 72 -73 176t73 176zM462 564h-91l-74 96l-74 -96h-91l112 144h106z
M251 -116q19 19 46 19q28 0 47 -19t19 -47q0 -27 -19 -46q-20 -20 -47 -20q-26 0 -46 20t-20 46q0 27 20 47z" />
    <glyph glyph-name="ohorn.acute095" unicode="&#x1eda;" horiz-adv-x="832" 
d="M610 155q73 79 73 199t-73 199q-75 83 -194 83t-194 -83q-73 -79 -73 -199t73 -199q75 -83 194 -83t194 83zM637 658q24 -16 45 -39q103 -106 103 -265t-103 -265q-105 -107 -266 -107t-265 107t-104 265t104 265t265 107q76 0 135 -22v2q36 0 60 24q25 25 25 61h75
q1 -73 -45 -113q-16 -14 -29 -20zM339 804l104 144h128l-149 -144h-83z" />
    <glyph glyph-name="ohorn.acute" unicode="&#x1edb;" horiz-adv-x="594" 
d="M183 119q44 -47 114 -47t114 47q42 45 42 118t-42 119q-43 46 -114 46t-114 -46q-42 -46 -42 -119t42 -118zM469 420l7 -7q73 -72 73 -176t-73 -176q-73 -73 -179 -73t-179 73q-73 72 -73 176t73 176q73 73 179 73q52 0 93 -16v1q36 0 60 24q25 25 25 61h75
q1 -73 -45 -113q-19 -16 -36 -23zM252 564l104 144h128l-149 -144h-83z" />
    <glyph glyph-name="Ohorn.grave" unicode="&#x1edc;" horiz-adv-x="832" 
d="M610 155q73 79 73 199t-73 199q-75 83 -194 83t-194 -83q-73 -79 -73 -199t73 -199q75 -83 194 -83t194 83zM637 658q24 -16 45 -39q103 -106 103 -265t-103 -265q-105 -107 -266 -107t-265 107t-104 265t104 265t265 107q76 0 135 -22v2q36 0 60 24q25 25 25 61h75
q1 -73 -45 -113q-16 -14 -29 -20zM389 948l104 -144h-83l-149 144h128z" />
    <glyph glyph-name="Ohorn.grave112" unicode="&#x1edd;" horiz-adv-x="594" 
d="M183 119q44 -47 114 -47t114 47q42 45 42 118t-42 119q-43 46 -114 46t-114 -46q-42 -46 -42 -119t42 -118zM469 420l7 -7q73 -72 73 -176t-73 -176q-73 -73 -179 -73t-179 73q-73 72 -73 176t73 176q73 73 179 73q52 0 93 -16v1q36 0 60 24q25 25 25 61h75
q1 -73 -45 -113q-19 -16 -36 -23zM267 708l104 -144h-83l-149 144h128z" />
    <glyph glyph-name="Ohorn.hook" unicode="&#x1ede;" horiz-adv-x="832" 
d="M610 155q73 79 73 199t-73 199q-75 83 -194 83t-194 -83q-73 -79 -73 -199t73 -199q75 -83 194 -83t194 83zM637 658q24 -16 45 -39q103 -106 103 -265t-103 -265q-105 -107 -266 -107t-265 107t-104 265t104 265t265 107q76 0 135 -22v2q36 0 60 24q25 25 25 61h75
q1 -73 -45 -113q-16 -14 -29 -20zM442 798h-55q2 35 8 46q9 12 19 20q23 23 23 33q0 8 -5 13q-6 6 -14 6q-10 0 -14 -6q-6 -6 -9 -29l-57 5q7 46 28 63q23 18 53 18q31 0 51 -18q22 -19 22 -51q0 -29 -16 -45l-21 -21q-11 -12 -13 -34z" />
    <glyph glyph-name="Ohorn.hook096" unicode="&#x1edf;" horiz-adv-x="594" 
d="M183 119q44 -47 114 -47t114 47q42 45 42 118t-42 119q-43 46 -114 46t-114 -46q-42 -46 -42 -119t42 -118zM469 420l7 -7q73 -72 73 -176t-73 -176q-73 -73 -179 -73t-179 73q-73 72 -73 176t73 176q73 73 179 73q52 0 93 -16v1q36 0 60 24q25 25 25 61h75
q1 -73 -45 -113q-19 -16 -36 -23zM331 558h-55q2 35 8 46q9 12 19 20q23 23 23 33q0 8 -5 13q-6 6 -14 6q-9 0 -14 -6q-6 -6 -9 -29l-57 5q7 46 28 63q23 18 53 18q32 0 51 -18q22 -19 22 -51q0 -29 -16 -45l-21 -21q-12 -12 -13 -34z" />
    <glyph glyph-name="Ohorn.tilde" unicode="&#x1ee0;" horiz-adv-x="832" 
d="M610 155q73 79 73 199t-73 199q-75 83 -194 83t-194 -83q-73 -79 -73 -199t73 -199q75 -83 194 -83t194 83zM637 658q24 -16 45 -39q103 -106 103 -265t-103 -265q-105 -107 -266 -107t-265 107t-104 265t104 265t265 107q76 0 135 -22v2q36 0 60 24q25 25 25 61h75
q1 -73 -45 -113q-16 -14 -29 -20zM296 816h-48q18 104 101 104q26 0 84 -23q46 -17 54 -17q35 0 49 44h48q-17 -104 -94 -104q-28 0 -81 21q-44 19 -66 19q-33 0 -47 -44z" />
    <glyph glyph-name="Ohorn.tilde097" unicode="&#x1ee1;" horiz-adv-x="594" 
d="M183 119q44 -47 114 -47t114 47q42 45 42 118t-42 119q-43 46 -114 46t-114 -46q-42 -46 -42 -119t42 -118zM469 420l7 -7q73 -72 73 -176t-73 -176q-73 -73 -179 -73t-179 73q-73 72 -73 176t73 176q73 73 179 73q52 0 93 -16v1q36 0 60 24q25 25 25 61h75
q1 -73 -45 -113q-19 -16 -36 -23zM141 576h-48q18 104 101 104q26 0 84 -23q46 -17 54 -17q35 0 49 44h48q-17 -104 -94 -104q-29 0 -81 21q-44 19 -66 19q-33 0 -47 -44z" />
    <glyph glyph-name="Ohorn.dotbl" unicode="&#x1ee2;" horiz-adv-x="832" 
d="M610 155q73 79 73 199t-73 199q-75 83 -194 83t-194 -83q-73 -79 -73 -199t73 -199q75 -83 194 -83t194 83zM637 658q24 -16 45 -39q103 -106 103 -265t-103 -265q-105 -107 -266 -107t-265 107t-104 265t104 265t265 107q76 0 135 -22v2q36 0 60 24q25 25 25 61h75
q1 -73 -45 -113q-16 -14 -29 -20zM370 -116q19 19 46 19q28 0 47 -19t19 -47q0 -27 -19 -46q-20 -20 -47 -20q-26 0 -46 20t-20 46q0 27 20 47z" />
    <glyph glyph-name="Ohorn.dotbl098" unicode="&#x1ee3;" horiz-adv-x="594" 
d="M183 119q44 -47 114 -47t114 47q42 45 42 118t-42 119q-43 46 -114 46t-114 -46q-42 -46 -42 -119t42 -118zM469 420l7 -7q73 -72 73 -176t-73 -176q-73 -73 -179 -73t-179 73q-73 72 -73 176t73 176q73 73 179 73q52 0 93 -16v1q36 0 60 24q25 25 25 61h75
q1 -73 -45 -113q-19 -16 -36 -23zM215 -116q19 19 46 19q28 0 47 -19t19 -47q0 -27 -19 -46q-20 -20 -47 -20q-26 0 -46 20t-20 46q0 27 20 47z" />
    <glyph glyph-name="U.dotbl" unicode="&#x1ee4;" horiz-adv-x="704" 
d="M78 708h96v-434q0 -78 39 -134q48 -68 139 -68t139 68q39 56 39 134v434h96v-449q0 -122 -79 -200q-77 -77 -195 -77t-195 77q-79 78 -79 200v449zM306 -116q19 19 46 19q28 0 47 -19t19 -47q0 -27 -19 -46q-20 -20 -47 -20q-26 0 -46 20t-20 46q0 27 20 47z" />
    <glyph glyph-name="U.dotbl099" unicode="&#x1ee5;" 
d="M488 474v-474h-90v73h-2q-39 -85 -156 -85q-74 0 -120 43q-52 48 -52 138v305h90v-280q0 -122 108 -122q59 0 94 38q38 41 38 120v244h90zM232 -116q19 19 46 19q28 0 47 -19t19 -47q0 -27 -19 -46q-20 -20 -47 -20q-26 0 -46 20t-20 46q0 27 20 47z" />
    <glyph glyph-name="U.hook" unicode="&#x1ee6;" horiz-adv-x="704" 
d="M78 708h96v-434q0 -78 39 -134q48 -68 139 -68t139 68q39 56 39 134v434h96v-449q0 -122 -79 -200q-77 -77 -195 -77t-195 77q-79 78 -79 200v449zM378 798h-55q2 35 8 46q9 12 19 20q23 23 23 33q0 8 -5 13q-6 6 -14 6q-10 0 -14 -6q-6 -6 -9 -29l-57 5q7 46 28 63
q22 18 53 18t51 -18q22 -19 22 -51q0 -29 -16 -45l-21 -21q-11 -12 -13 -34z" />
    <glyph glyph-name="U.hook100" unicode="&#x1ee7;" 
d="M488 474v-474h-90v73h-2q-39 -85 -156 -85q-74 0 -120 43q-52 48 -52 138v305h90v-280q0 -122 108 -122q59 0 94 38q38 41 38 120v244h90zM304 558h-55q2 35 8 46q9 12 19 20q23 23 23 33q0 8 -5 13q-6 6 -14 6q-10 0 -14 -6q-6 -6 -9 -29l-57 5q7 46 28 63q23 18 53 18
q31 0 51 -18q22 -19 22 -51q0 -29 -16 -45l-21 -21q-11 -12 -13 -34z" />
    <glyph glyph-name="Uhorn.acute" unicode="&#x1ee8;" horiz-adv-x="704" 
d="M626 650v-391q0 -122 -79 -200q-77 -77 -195 -77t-195 77q-79 78 -79 200v449h96v-434q0 -78 39 -134q48 -68 139 -68t139 68q39 56 39 134v434h49q23 4 40 22q25 25 25 61h75q1 -73 -45 -113q-19 -19 -48 -28zM321 804l104 144h128l-149 -144h-83z" />
    <glyph glyph-name="Uhorn.acute101" unicode="&#x1ee9;" 
d="M488 418v-418h-90v73h-2q-39 -85 -156 -85q-74 0 -120 43q-52 48 -52 138v305h90v-280q0 -122 108 -122q59 0 94 38q38 41 38 120v244h39q19 4 36 21q25 25 25 61h75q1 -73 -45 -113q-15 -15 -40 -25zM225 564l104 144h128l-149 -144h-83z" />
    <glyph glyph-name="Uhorn.grave" unicode="&#x1eea;" horiz-adv-x="704" 
d="M626 650v-391q0 -122 -79 -200q-77 -77 -195 -77t-195 77q-79 78 -79 200v449h96v-434q0 -78 39 -134q48 -68 139 -68t139 68q39 56 39 134v434h49q23 4 40 22q25 25 25 61h75q1 -73 -45 -113q-19 -19 -48 -28zM372 948l104 -144h-83l-149 144h128z" />
    <glyph glyph-name="Uhorn.grave102" unicode="&#x1eeb;" 
d="M488 418v-418h-90v73h-2q-39 -85 -156 -85q-74 0 -120 43q-52 48 -52 138v305h90v-280q0 -122 108 -122q59 0 94 38q38 41 38 120v244h39q19 4 36 21q25 25 25 61h75q1 -73 -45 -113q-15 -15 -40 -25zM277 708l104 -144h-83l-149 144h128z" />
    <glyph glyph-name="Uhorn.hook" unicode="&#x1eec;" horiz-adv-x="704" 
d="M626 650v-391q0 -122 -79 -200q-77 -77 -195 -77t-195 77q-79 78 -79 200v449h96v-434q0 -78 39 -134q48 -68 139 -68t139 68q39 56 39 134v434h49q23 4 40 22q25 25 25 61h75q1 -73 -45 -113q-19 -19 -48 -28zM425 798h-55q2 35 8 46q9 12 19 20q23 23 23 33q0 8 -5 13
q-6 6 -14 6q-9 0 -14 -6q-6 -6 -9 -29l-57 5q7 46 28 63q23 18 53 18q32 0 51 -18q22 -19 22 -51q0 -29 -16 -45l-21 -21q-12 -12 -13 -34z" />
    <glyph glyph-name="Uhorn.hook103" unicode="&#x1eed;" 
d="M488 418v-418h-90v73h-2q-39 -85 -156 -85q-74 0 -120 43q-52 48 -52 138v305h90v-280q0 -122 108 -122q59 0 94 38q38 41 38 120v244h39q19 4 36 21q25 25 25 61h75q1 -73 -45 -113q-15 -15 -40 -25zM342 558h-55q2 35 8 46q9 12 19 20q23 23 23 33q0 8 -5 13
q-6 6 -14 6q-10 0 -14 -6q-6 -6 -9 -29l-57 5q7 46 28 63q22 18 53 18t51 -18q22 -19 22 -51q0 -29 -16 -45l-21 -21q-11 -12 -13 -34z" />
    <glyph glyph-name="Uhorn.tilde" unicode="&#x1eee;" horiz-adv-x="704" 
d="M626 650v-391q0 -122 -79 -200q-77 -77 -195 -77t-195 77q-79 78 -79 200v449h96v-434q0 -78 39 -134q48 -68 139 -68t139 68q39 56 39 134v434h49q23 4 40 22q25 25 25 61h75q1 -73 -45 -113q-19 -19 -48 -28zM279 816h-48q18 104 101 104q26 0 84 -23q46 -17 54 -17
q35 0 49 44h48q-17 -104 -94 -104q-29 0 -81 21q-44 19 -66 19q-33 0 -47 -44z" />
    <glyph glyph-name="Uhorn.tilde104" unicode="&#x1eef;" 
d="M488 418v-418h-90v73h-2q-39 -85 -156 -85q-74 0 -120 43q-52 48 -52 138v305h90v-280q0 -122 108 -122q59 0 94 38q38 41 38 120v244h39q19 4 36 21q25 25 25 61h75q1 -73 -45 -113q-15 -15 -40 -25zM184 576h-48q18 104 101 104q26 0 84 -23q46 -17 54 -17q35 0 49 44
h48q-17 -104 -94 -104q-28 0 -81 21q-44 19 -66 19q-33 0 -47 -44z" />
    <glyph glyph-name="Uhorn.dotbl" unicode="&#x1ef0;" horiz-adv-x="704" 
d="M626 650v-391q0 -122 -79 -200q-77 -77 -195 -77t-195 77q-79 78 -79 200v449h96v-434q0 -78 39 -134q48 -68 139 -68t139 68q39 56 39 134v434h49q23 4 40 22q25 25 25 61h75q1 -73 -45 -113q-19 -19 -48 -28zM312 -116q19 19 46 19q28 0 47 -19t19 -47q0 -27 -19 -46
q-20 -20 -47 -20q-26 0 -46 20t-20 46q0 27 20 47z" />
    <glyph glyph-name="Uhorn.dotbl105" unicode="&#x1ef1;" 
d="M488 418v-418h-90v73h-2q-39 -85 -156 -85q-74 0 -120 43q-52 48 -52 138v305h90v-280q0 -122 108 -122q59 0 94 38q38 41 38 120v244h39q19 4 36 21q25 25 25 61h75q1 -73 -45 -113q-15 -15 -40 -25zM258 -116q19 19 46 19q28 0 47 -19t19 -47q0 -27 -19 -46
q-20 -20 -47 -20q-26 0 -46 20t-20 46q0 27 20 47z" />
    <glyph glyph-name="Ygrave" unicode="&#x1ef2;" horiz-adv-x="612" 
d="M258 0v302l-268 406h123l193 -311l199 311h117l-268 -406v-302h-96zM279 948l104 -144h-83l-149 144h128z" />
    <glyph glyph-name="Ygrave106" unicode="&#x1ef3;" horiz-adv-x="500" 
d="M208 -3l-197 477h104l141 -370h2l134 370h97l-225 -576q-28 -72 -56 -100q-38 -38 -106 -38q-50 0 -80 13l11 82q30 -11 54 -11q39 0 61 21q15 19 31 57zM223 708l104 -144h-83l-149 144h128z" />
    <glyph glyph-name="Y.dotbl" unicode="&#x1ef4;" horiz-adv-x="612" 
d="M258 0v302l-268 406h123l193 -311l199 311h117l-268 -406v-302h-96zM260 -116q19 19 46 19q28 0 47 -19t19 -47q0 -27 -19 -46q-20 -20 -47 -20q-26 0 -46 20t-20 46q0 27 20 47z" />
    <glyph glyph-name="Y.dotbl107" unicode="&#x1ef5;" horiz-adv-x="500" 
d="M208 -3l-197 477h104l141 -370h2l134 370h97l-225 -576q-28 -72 -56 -100q-38 -38 -106 -38q-50 0 -80 13l11 82q30 -11 54 -11q39 0 61 21q15 19 31 57zM320 -116q19 19 46 19q28 0 47 -19t19 -47q0 -27 -19 -46q-20 -20 -47 -20q-26 0 -46 20t-20 46q0 27 20 47z" />
    <glyph glyph-name="Y.hook" unicode="&#x1ef6;" horiz-adv-x="612" 
d="M258 0v302l-268 406h123l193 -311l199 311h117l-268 -406v-302h-96zM332 798h-55q2 35 8 46q9 12 19 20q23 23 23 33q0 8 -5 13q-6 6 -14 6q-10 0 -14 -6q-6 -6 -9 -29l-57 5q7 46 28 63q22 18 53 18t51 -18q22 -19 22 -51q0 -29 -16 -45l-21 -21q-11 -12 -13 -34z" />
    <glyph glyph-name="Y.hook108" unicode="&#x1ef7;" horiz-adv-x="500" 
d="M208 -3l-197 477h104l141 -370h2l134 370h97l-225 -576q-28 -72 -56 -100q-38 -38 -106 -38q-50 0 -80 13l11 82q30 -11 54 -11q39 0 61 21q15 19 31 57zM276 558h-55q2 35 8 46q9 12 19 20q23 23 23 33q0 8 -5 13q-6 6 -14 6q-10 0 -14 -6q-6 -6 -9 -29l-57 5
q7 46 28 63q22 18 53 18t51 -18q22 -19 22 -51q0 -29 -16 -45l-21 -21q-11 -12 -13 -34z" />
    <glyph glyph-name="Ytilde" unicode="&#x1ef8;" horiz-adv-x="612" 
d="M258 0v302l-268 406h123l193 -311l199 311h117l-268 -406v-302h-96zM186 816h-48q18 104 101 104q26 0 84 -23q46 -17 54 -17q35 0 49 44h48q-17 -104 -94 -104q-28 0 -81 21q-44 19 -66 19q-33 0 -47 -44z" />
    <glyph glyph-name="Ytilde109" unicode="&#x1ef9;" horiz-adv-x="500" 
d="M208 -3l-197 477h104l141 -370h2l134 370h97l-225 -576q-28 -72 -56 -100q-38 -38 -106 -38q-50 0 -80 13l11 82q30 -11 54 -11q39 0 61 21q15 19 31 57zM130 576h-48q18 104 101 104q26 0 84 -23q46 -17 54 -17q35 0 49 44h48q-17 -104 -94 -104q-28 0 -81 21
q-44 19 -66 19q-33 0 -47 -44z" />
    <glyph glyph-name="uni2010" unicode="&#x2010;" horiz-adv-x="316" 
d="M281 284v-84h-246v84h246z" />
    <glyph glyph-name="endash" unicode="&#x2013;" horiz-adv-x="500" 
d="M500 282v-78h-500v78h500z" />
    <glyph glyph-name="emdash" unicode="&#x2014;" horiz-adv-x="1000" 
d="M1000 282v-78h-1000v78h1000z" />
    <glyph glyph-name="quoteleft" unicode="&#x2018;" horiz-adv-x="278" 
d="M56 462l84 246h82l-69 -246h-97z" />
    <glyph glyph-name="quoteright" unicode="&#x2019;" horiz-adv-x="278" 
d="M222 708l-84 -246h-82l69 246h97z" />
    <glyph glyph-name="quotesinglbase" unicode="&#x201a;" horiz-adv-x="278" 
d="M222 114l-84 -246h-82l69 246h97z" />
    <glyph glyph-name="quotedblleft" unicode="&#x201c;" horiz-adv-x="519" 
d="M254 708l-69 -246h-97l84 246h82zM431 708l-69 -246h-97l84 246h82z" />
    <glyph glyph-name="quotedblright" unicode="&#x201d;" horiz-adv-x="519" 
d="M254 708l-84 -246h-82l69 246h97zM431 708l-84 -246h-82l69 246h97z" />
    <glyph glyph-name="quotedblbase" unicode="&#x201e;" horiz-adv-x="519" 
d="M254 114l-84 -246h-82l69 246h97zM431 114l-84 -246h-82l69 246h97z" />
    <glyph glyph-name="dagger" unicode="&#x2020;" 
d="M233 -126v553h-198v78h198v203h90v-203h198v-78h-198v-553h-90z" />
    <glyph glyph-name="daggerdbl" unicode="&#x2021;" 
d="M233 -126v192h-192v78h192v306h-192v78h192v180h90v-180h192v-78h-192v-306h192v-78h-192v-192h-90z" />
    <glyph glyph-name="bullet" unicode="&#x2022;" horiz-adv-x="500" 
d="M125 479q52 52 125 52q74 0 125 -52q52 -51 52 -125q0 -73 -52 -125q-51 -52 -125 -52q-73 0 -125 52t-52 125q0 74 52 125z" />
    <glyph glyph-name="ellipsis" unicode="&#x2026;" horiz-adv-x="1000" 
d="M121 14q-20 20 -20 46q0 27 20 47q19 19 46 19q28 0 47 -19t19 -47q0 -27 -19 -46q-20 -20 -47 -20q-26 0 -46 20zM454 14q-20 20 -20 46q0 27 20 47q19 19 46 19q28 0 47 -19t19 -47q0 -27 -19 -46q-20 -20 -47 -20q-26 0 -46 20zM787 14q-20 20 -20 46q0 27 20 47
q19 19 46 19q28 0 47 -19t19 -47q0 -27 -19 -46q-20 -20 -47 -20q-26 0 -46 20z" />
    <glyph glyph-name="perthousand" unicode="&#x2030;" horiz-adv-x="1056" 
d="M392 30q-47 47 -47 115t47 115q50 47 115 47q68 0 115 -47q48 -48 48 -115t-48 -115q-46 -48 -115 -48q-67 0 -115 48zM571 81q27 27 27 64t-27 64q-26 26 -64 26q-35 0 -64 -26q-26 -26 -26 -64t26 -64q27 -27 64 -27q39 0 64 27zM758 260q50 47 115 47q68 0 115 -47
q48 -48 48 -115t-48 -115q-46 -48 -115 -48q-67 0 -115 48q-47 47 -47 115t47 115zM937 81q27 27 27 64t-27 64q-26 26 -64 26q-35 0 -64 -26q-26 -26 -26 -64t26 -64q27 -27 64 -27q39 0 64 27zM67 673q50 47 115 47q68 0 115 -47q48 -48 48 -115t-48 -115
q-47 -48 -115 -48q-67 0 -115 48q-47 47 -47 115t47 115zM118 494q27 -27 64 -27q39 0 64 27q27 27 27 64t-27 64q-26 26 -64 26q-35 0 -64 -26q-26 -26 -26 -64t26 -64zM598 710l-443 -741l-62 31l445 740z" />
    <glyph glyph-name="guilsinglleft" unicode="&#x2039;" horiz-adv-x="315" 
d="M200 27l-146 216l145 216l62 -41l-117 -175l118 -175z" />
    <glyph glyph-name="guilsinglright" unicode="&#x203a;" horiz-adv-x="315" 
d="M116 27l-62 41l117 175l-118 175l62 41l146 -216z" />
    <glyph glyph-name="fraction" unicode="&#x2044;" horiz-adv-x="167" 
d="M333 708l-439 -740l-60 32l439 740z" />
    <glyph glyph-name="Euro" unicode="&#x20ac;" 
d="M525 684l-21 -75q-46 34 -131 34q-139 0 -182 -160h276l-17 -67h-271q-4 -28 -4 -73v-25q0 -20 1 -23h242l-17 -65h-219q26 -168 167 -168q75 0 125 59l49 -49q-63 -84 -178 -84q-212 0 -250 242h-72l19 65h46q-1 3 -1 24v27q0 37 3 70h-66l21 67h57q27 117 102 179
q70 58 173 58q88 0 148 -36z" />
    <glyph glyph-name="uni2113" unicode="&#x2113;" horiz-adv-x="492" 
d="M430 158l39 -36q-67 -129 -191 -129q-158 0 -169 182v13l-28.5 -23.5l-20.5 -16.5t-7 -6l-25 49l40.5 35l29 25.5t10.5 9.5v271q0 127 50 192q42 54 110 54q62 0 96 -49q31 -43 31 -118q0 -165 -204 -366v-36q1 -75 32 -112q29 -35 73 -35q78 0 134 96zM191 537v-208
q146 164 146 282q0 102 -68 102q-32 0 -52 -38q-26 -47 -26 -138z" />
    <glyph glyph-name="trademark" unicode="&#x2122;" horiz-adv-x="1000" 
d="M158 296v346h-124v66h326v-66h-124v-346h-78zM439 296v412h119l111 -316h3l111 316h119v-412h-78v344h-2l-120 -344h-63l-120 344h-2v-344h-78z" />
    <glyph glyph-name="Omega" unicode="&#x2126;" horiz-adv-x="716" 
d="M193 71v3q-133 121 -133 308q0 145 86 240q85 94 215 94q131 0 215 -101q78 -95 78 -228q0 -197 -134 -313v-3h148v-71h-245v53q144 95 144 317q-1 109 -53 186q-58 87 -154 87q-95 0 -154 -80q-58 -76 -58 -196q0 -106 45 -196q41 -81 99 -118v-53h-246v71h147z" />
    <glyph glyph-name="estimated" unicode="&#x212e;" horiz-adv-x="883" 
d="M847 344h-658q-5 0 -5 -5v-199q0 -12 8 -23q105 -108 249 -108q156 0 262 121h59q-122 -141 -322 -141q-168 0 -287 107t-119 258t119 259q119 107 287 107q169 0 288 -107t119 -259v-10zM698 370v200q0 14 -10 24q-107 104 -247 104q-143 0 -248 -107q-9 -11 -9 -25
v-196q0 -7 5 -7h505q4 0 4 7z" />
    <glyph glyph-name="partialdiff" unicode="&#x2202;" horiz-adv-x="552" 
d="M102 672l-28 64q72 57 170 57q109 0 179 -94q79 -103 79 -288q0 -187 -68 -300q-71 -119 -197 -119q-93 0 -147 75q-48 66 -48 160q0 116 64 189q60 70 149 70q110 0 161 -92h1q1 7 1 42q0 122 -53 205q-53 80 -130 80q-75 0 -133 -49zM245 65h1q64 0 110 76
q40 71 51 171q-12 37 -46 67q-40 37 -91 37q-59 0 -101 -56t-42 -134q0 -71 32 -115q33 -46 86 -46z" />
    <glyph glyph-name="Delta" unicode="&#x2206;" horiz-adv-x="649" 
d="M30 0v57l246 666h101l241 -665v-58h-588zM119 71h407l-137 366q-22 66 -34 97q-23 64 -30 90h-4q-5 -24 -26 -79l-32 -92z" />
    <glyph glyph-name="product" unicode="&#x220f;" horiz-adv-x="704" 
d="M677 626h-107v-723h-86v723h-266v-723h-85v723h-107v79h651v-79z" />
    <glyph glyph-name="summation" unicode="&#x2211;" horiz-adv-x="554" 
d="M532 -97h-509v57l263 343l-252 341v61h483v-74h-364v-4l231 -311l-252 -328v-4h400v-81z" />
    <glyph glyph-name="minus" unicode="&#x2212;" horiz-adv-x="666" 
d="M66 342h534v-78h-534v78z" />
    <glyph glyph-name="uni2215" unicode="&#x2215;" horiz-adv-x="167" 
d="M333 708l-439 -740l-60 32l439 740z" />
    <glyph glyph-name="uni2219" unicode="&#x2219;" horiz-adv-x="278" 
d="M93 350q19 19 46 19q28 0 47 -19t19 -47q0 -27 -19 -46q-20 -20 -47 -20q-26 0 -46 20t-20 46q0 27 20 47z" />
    <glyph glyph-name="radical" unicode="&#x221a;" horiz-adv-x="577" 
d="M578 840l-222 -989h-74l-158 463l-74 -28l-16 51l144 57l122 -363q0 -2 10 -41q7 -28 8 -36h1l14 78l183 808h62z" />
    <glyph glyph-name="infinity" unicode="&#x221e;" horiz-adv-x="780" 
d="M729 293v-1q0 -72 -47 -119q-47 -44 -108 -44q-82 0 -183 119q-102 -119 -189 -119q-62 0 -107 45q-45 46 -45 114q0 70 45 116q46 46 114 46q88 0 185 -118q55 61 80 80q50 38 107 38q65 0 107 -44q41 -44 41 -113zM209 182h1q54 0 152 104q-90 113 -158 113
q-46 0 -73 -33q-26 -32 -26 -79q0 -42 29 -74q30 -31 75 -31zM575 399h-1q-50 0 -152 -108q96 -109 155 -109q44 0 72 34q25 31 25 72q0 53 -28 81q-27 30 -71 30z" />
    <glyph glyph-name="integral" unicode="&#x222b;" horiz-adv-x="367" 
d="M349 851l-13 -61q-13 10 -36 10q-33 0 -51 -24q-32 -41 -32 -178q0 -90 7 -248t7 -255q0 -137 -42 -204q-33 -56 -106 -56q-40 0 -68 16l14 63q27 -12 45 -12q28 0 46 23q32 44 32 170q0 97 -7 259t-7 252q0 159 55 217q38 41 100 41q34 0 56 -13z" />
    <glyph glyph-name="approxequal" unicode="&#x2248;" horiz-adv-x="561" 
d="M481 439l34 -30q-50 -98 -130 -98q-43 0 -116 42q-58 34 -92 34q-51 0 -98 -74l-35 29q50 98 139 98q35 0 111 -40q64 -36 93 -36q50 0 94 75zM481 264l34 -30q-49 -97 -130 -97q-43 0 -116 42q-58 34 -92 34q-50 0 -98 -75l-35 30q50 98 139 98q35 0 111 -40
q66 -36 93 -36q50 0 94 74z" />
    <glyph glyph-name="notequal" unicode="&#x2260;" horiz-adv-x="561" 
d="M401 509l-44 -96h153v-54h-174l-66 -145h240v-54h-261l-53 -117l-43 19l44 98h-147v54h169l65 145h-234v54h256l52 115z" />
    <glyph glyph-name="lessequal" unicode="&#x2264;" horiz-adv-x="561" 
d="M507 98l-451 226v58l451 226v-65l-394 -188v-2l394 -190v-65zM510 2h-459v56h459v-56z" />
    <glyph glyph-name="greaterequal" unicode="&#x2265;" horiz-adv-x="561" 
d="M57 608l451 -226v-58l-451 -226v65l394 189v2l-394 189v65zM509 2h-457v56h457v-56z" />
    <glyph glyph-name="lozenge" unicode="&#x25ca;" horiz-adv-x="577" 
d="M523 352l-201 -398h-70l-198 398l201 399h70zM445 350l-137 273q-14 41 -18 55h-3q-10 -30 -20 -55l-135 -269l137 -276q14 -40 17 -53h4q12 36 18 52z" />
    <glyph glyph-name="cir.acute" unicode="&#xe00d;" horiz-adv-x="0" 
d="M285 747h-91l-74 96l-74 -96h-91l112 144h106zM233 863l104 144h128l-149 -144h-83z" />
    <glyph glyph-name="cir.grave" unicode="&#xe00e;" horiz-adv-x="0" 
d="M285 748h-91l-74 96l-74 -96h-91l112 144h106zM-89 1006l104 -144h-83l-149 144h128z" />
    <glyph glyph-name="cir.tilde" unicode="&#xe00f;" horiz-adv-x="0" 
d="M285 747h-91l-74 96l-74 -96h-91l112 144h106zM30 910h-48q18 104 101 104q26 0 84 -23q46 -17 54 -17q35 0 49 44h48q-17 -104 -94 -104q-28 0 -81 21q-44 19 -66 19q-33 0 -47 -44z" />
    <glyph glyph-name="breve.tilde" unicode="&#xe010;" horiz-adv-x="0" 
d="M-37 885h55q14 -72 103 -72q90 0 103 72h53q-4 -67 -48 -103q-41 -35 -109 -35t-109 35q-44 36 -48 103zM5 912h-48q18 104 101 104q26 0 84 -23q46 -17 54 -17q35 0 49 44h48q-17 -104 -94 -104q-29 0 -81 21q-44 19 -66 19q-33 0 -47 -44z" />
    <glyph glyph-name="breve.acute" unicode="&#xe011;" horiz-adv-x="0" 
d="M-37 886h55q14 -72 103 -72q90 0 103 72h53q-4 -67 -48 -103q-41 -35 -109 -35t-109 35q-44 36 -48 103zM84 888l104 144h128l-149 -144h-83z" />
    <glyph glyph-name="breve.grave" unicode="&#xe012;" horiz-adv-x="0" 
d="M-37 886h55q14 -72 103 -72q90 0 103 72h53q-4 -67 -48 -103q-41 -35 -109 -35t-109 35q-44 36 -48 103zM57 1034l104 -144h-83l-149 144h128z" />
    <glyph glyph-name="breve.hook" unicode="&#xe013;" horiz-adv-x="0" 
d="M-37 886h55q14 -72 103 -72q90 0 103 72h53q-4 -67 -48 -103q-41 -35 -109 -35t-109 35q-44 36 -48 103zM150 907h-55q2 26 8 34q7 7 19 15q23 17 23 25q0 5 -5 10q-4 4 -14 4t-14 -4q-6 -5 -9 -22l-57 4q7 33 28 47q22 13 53 13q32 0 51 -13q22 -13 22 -38
q0 -21 -16 -34l-21 -16q-12 -9 -13 -25z" />
    <glyph glyph-name="cir.hook" unicode="&#xe014;" horiz-adv-x="0" 
d="M285 747h-91l-74 96l-74 -96h-91l112 144h106zM303 890h-55q2 35 8 46q9 12 19 20q23 23 23 33q0 8 -5 13q-6 6 -14 6q-9 0 -14 -6q-6 -6 -9 -29l-57 5q7 46 28 63q22 18 53 18q32 0 51 -18q22 -19 22 -51q0 -29 -16 -45l-21 -21q-12 -12 -13 -34z" />
    <glyph glyph-name="uniE015" unicode="&#xe015;" horiz-adv-x="240" 
d="M82 708l104 -144h-83l-149 144h128z" />
    <glyph glyph-name="uniE016" unicode="&#xe016;" horiz-adv-x="240" 
d="M54 564l104 144h128l-149 -144h-83z" />
    <glyph glyph-name="uniE017" unicode="&#xe017;" horiz-adv-x="240" 
d="M285 564h-91l-74 96l-74 -96h-91l112 144h106z" />
    <glyph glyph-name="uniE018" unicode="&#xe018;" horiz-adv-x="240" 
d="M67 564l-112 144h87l78 -96l74 96h91l-112 -144h-106z" />
    <glyph glyph-name="uniE019" unicode="&#xe019;" horiz-adv-x="240" 
d="M-48 576h-48q18 104 101 104q26 0 84 -23q46 -17 54 -17q35 0 49 44h48q-17 -104 -94 -104q-28 0 -81 21q-44 19 -66 19q-33 0 -47 -44z" />
    <glyph glyph-name="uniE01A" unicode="&#xe01a;" horiz-adv-x="240" 
d="M82 708l104 -144h-83l-149 144h128z" />
    <glyph glyph-name="uniE01B" unicode="&#xe01b;" horiz-adv-x="240" 
d="M-50 564l104 144h127l-149 -144h-82zM119 564l104 144h127l-149 -144h-82z" />
    <glyph glyph-name="uniE01C" unicode="&#xe01c;" horiz-adv-x="240" 
d="M-37 702h55q14 -72 103 -72q90 0 103 72h53q-4 -67 -48 -103q-41 -35 -109 -35t-109 35q-44 36 -48 103z" />
    <glyph glyph-name="uniE01D" unicode="&#xe01d;" horiz-adv-x="240" 
d="M-37 702h55q14 -72 103 -72q90 0 103 72h53q-4 -67 -48 -103q-41 -35 -109 -35t-109 35q-44 36 -48 103z" />
    <glyph glyph-name="uniE01E" unicode="&#xe01e;" horiz-adv-x="240" 
d="M49 722q28 28 71 28q44 0 72 -28q32 -29 30 -70q1 -42 -30 -70q-32 -29 -72 -29q-43 0 -71 28q-31 28 -31 70q0 41 31 71zM162 692q-16 16 -42 16t-42 -16q-18 -16 -18 -41q0 -23 18 -40q16 -16 42 -16t42 16q18 17 18 40q0 25 -18 41z" />
    <glyph glyph-name="uniE01F" unicode="&#xe01f;" horiz-adv-x="500" 
d="M284 558h-55q2 35 8 46q9 12 19 20q23 23 23 33q0 8 -5 13q-6 6 -14 6q-10 0 -14 -6q-6 -6 -9 -29l-57 5q7 46 28 63q23 18 53 18q31 0 51 -18q22 -19 22 -51q0 -29 -16 -45l-21 -21q-11 -12 -13 -34z" />
    <glyph glyph-name="uniE020" unicode="&#xe020;" horiz-adv-x="284" 
d="M-26 612q-18 18 -18 45q0 25 19 41t43 16t43 -16t19 -41t-17 -45q-18 -18 -45 -18q-28 0 -44 18zM222 612q-18 18 -18 45q0 25 19 41t43 16t43 -16t19 -41t-17 -45q-18 -18 -45 -18q-28 0 -44 18z" />
    <glyph glyph-name="fi" unicode="&#xfb01;" 
d="M390 0v474h90v-474h-90zM390 690q19 19 46 19q28 0 47 -19t19 -47q0 -27 -19 -46q-20 -20 -47 -20q-26 0 -46 20t-20 46q0 27 20 47zM103 0v396h-102v78h102v106q0 98 37 141q38 47 125 47q40 0 67 -7l-10 -80q-22 9 -51 9q-46 0 -63 -29q-14 -23 -14 -78v-109h107v-78
h-108v-396h-90z" />
    <glyph glyph-name="fl" unicode="&#xfb02;" 
d="M391 0v756h90v-756h-90zM103 0v396h-102v78h102v106q0 98 37 141q38 47 125 47q40 0 67 -7l-10 -80q-22 9 -51 9q-46 0 -63 -29q-14 -23 -14 -78v-109h107v-78h-108v-396h-90z" />
    <glyph glyph-name="_254" horiz-adv-x="337" 
d="M308 425h-66v44l-2 1q-24 -51 -100 -51q-44 0 -73 21q-33 24 -33 65q0 103 196 103h12v10q0 48 -68 48q-53 0 -89 -33l-35 45q48 42 123 42q135 0 135 -99v-196zM242 560h-2q-62 0 -91 -6q-49 -10 -49 -45q0 -36 60 -36q82 0 82 68v19z" />
    <glyph glyph-name="_255" horiz-adv-x="386" 
d="M313 679q44 -42 44 -110t-44 -109q-47 -41 -120 -41q-75 0 -119 41q-45 40 -45 109q0 68 45 110q44 41 119 41q73 0 120 -41zM101 569q0 -90 92 -90t92 90q0 91 -92 91t-92 -91z" />
    <glyph glyph-name="_256" horiz-adv-x="361" 
d="M154 289v359l-85 -72l-42 46l128 98h71v-431h-72z" />
    <glyph glyph-name="_257" horiz-adv-x="361" 
d="M26 289v76l179 160q45 41 45 73q0 26 -19 41q-18 15 -46 15q-63 0 -68 -59l-84 6q4 57 48 89q41 30 104 30q65 0 106 -30q43 -31 43 -90q0 -62 -71 -124l-141 -121h213v-66h-309z" />
    <glyph glyph-name="_258" horiz-adv-x="361" 
d="M140 477v66h18q90 0 90 57q0 24 -18 39t-47 15q-53 0 -69 -45l-83 20q28 91 148 91q63 0 103 -28q44 -32 44 -84q0 -78 -78 -96v-2q43 -5 66 -35q23 -29 23 -68q0 -57 -47 -92q-44 -32 -108 -32q-130 0 -158 99l83 20q17 -53 75 -53q32 0 54 18q23 18 23 46q0 65 -102 64
h-17z" />
    </font>
</defs>
</svg>
